<?xml version="1.0" encoding="UTF-8"?>
<svg width="361px" height="52px" viewBox="0 0 361 52" version="1.1" xmlns="http://www.w3.org/2000/svg" xmlns:xlink="http://www.w3.org/1999/xlink">
    <!-- Generator: Sketch 53 (72520) - https://sketchapp.com -->
    <title>LA-dark-transparent</title>
    <desc>Created with Sketch.</desc>
    <g id="Lingua-Attack-Landing-Page" stroke="none" stroke-width="1" fill="none" fill-rule="evenodd">
        <g id="LA-Landing---V4" transform="translate(-81.000000, -49.000000)">
            <g id="LA-dark-transparent" transform="translate(81.000000, 49.000000)">
                <polyline id="Fill-1" fill="#3B3C3A" points="7.32025806 0.886516129 15.8826452 0.886516129 8.80645161 39.0545161 0.244064516 39.0545161 7.32025806 0.886516129"></polyline>
                <path d="M27.3654194,7.38567742 L18.803871,7.38567742 L20.0082581,0.886516129 L28.5706452,0.886516129 L27.3654194,7.38567742 Z M21.4944516,39.0545161 L12.9320645,39.0545161 L18.2402581,10.4285161 L26.8009677,10.4285161 L21.4944516,39.0545161 L21.4944516,39.0545161 Z" id="Fill-2" fill="#3B3C3A"></path>
                <path d="M30.9282581,10.4285161 L38.9228387,10.4285161 L38.3583871,13.4721935 L38.4615484,13.4721935 C39.5963226,12.0790968 41.8901935,9.44890323 46.9962581,9.44890323 C49.7287742,9.44890323 52.5619355,10.5828387 53.8602581,11.9247742 C55.1594194,13.2650323 56.492129,15.5345806 55.4496129,21.1564516 L52.1316774,39.0545161 L43.570129,39.0545161 L46.467871,23.426 C46.8402581,21.4147742 47.5674194,17.4946452 43.0794839,17.4946452 C38.1805806,17.4946452 37.3955484,21.7242581 37.0709677,23.478 L34.1832903,39.0545161 L25.6209032,39.0545161 L30.9282581,10.4285161" id="Fill-3" fill="#3B3C3A"></path>
                <path d="M71.546129,31.9883871 C75.6725806,31.9883871 79.1163226,28.995871 79.8803871,24.8694194 C80.7316774,20.2791613 78.1014839,17.4946452 74.2853548,17.4946452 C70.6235484,17.4946452 66.8283871,20.4343226 66.0534194,24.6119355 C65.202129,29.2021935 67.9866452,31.9883871 71.546129,31.9883871 Z M86.4533548,35.5973548 C85.6599355,39.8798065 84.8430323,42.6131613 83.0012258,45.0361935 C80.1143871,48.6476774 74.3214194,51.7936774 67.2552903,51.7936774 C57.3006452,51.7936774 54.6444516,45.8103226 54.8323226,41.735871 L64.7358065,41.735871 C65.447871,44.5740645 68.6450323,44.5740645 69.2128387,44.5740645 C70.2956129,44.5740645 76.1950968,44.4700645 77.6192258,36.784129 L77.7827742,35.9076774 L77.6796129,35.9076774 C76.4970323,37.5582581 73.5716129,39.9829677 69.0845161,39.9829677 C61.2962581,39.9829677 55.7330968,34.1027742 57.4348387,24.9214194 C59.2506452,15.1219355 67.308129,9.50006452 74.7349032,9.50006452 C77.9337419,9.50006452 80.8692258,10.6348387 81.957871,13.1107097 L82.0610323,13.1107097 L82.5575484,10.4285161 L91.1199355,10.4285161 L86.4533548,35.5973548 L86.4533548,35.5973548 Z" id="Fill-4" fill="#3B3C3A"></path>
                <path d="M116.347484,39.0545161 L108.250581,39.0545161 L108.814194,36.0116774 L108.711032,36.0116774 C106.277935,39.6734839 102.713419,39.9829677 100.547871,39.9829677 C98.794129,39.9829677 94.744,39.5703226 92.8099355,36.3714839 C91.0662581,33.5349677 91.1392258,31.4717419 91.8663871,27.5524516 L95.0400645,10.4285161 L103.602452,10.4285161 L100.666968,26.2625161 C100.303806,28.2225806 99.606,31.9883871 104.196258,31.9883871 C106.672129,31.9883871 109.335032,30.6992903 110.176258,26.1593548 L113.09329,10.4285161 L121.654839,10.4285161 L116.347484,39.0545161" id="Fill-5" fill="#3B3C3A"></path>
                <path d="M136.114194,32.0395484 C141.477742,32.0395484 144.12471,27.5012903 144.641355,24.7150968 C145.28129,21.2596129 143.616452,17.4426452 138.76871,17.4426452 C133.868129,17.4426452 130.937677,21.5690968 130.334645,24.8182581 C129.838129,27.5012903 130.956129,32.0395484 136.114194,32.0395484 Z M150.544194,39.0545161 L141.982645,39.0545161 L142.556323,35.9588387 L142.453161,35.9588387 C140.493097,38.7441935 136.694581,40.0332903 133.341419,40.0332903 C124.264065,40.0332903 120.270968,32.9168387 121.791548,24.7150968 C123.531871,15.3274194 131.378839,9.44890323 139.012774,9.44890323 C143.706194,9.44890323 145.916194,11.7176129 146.622387,13.4721935 L146.725548,13.4721935 L147.29,10.4285161 L155.851548,10.4285161 L150.544194,39.0545161 L150.544194,39.0545161 Z" id="Fill-6" fill="#3B3C3A"></path>
                <path d="M170.461871,31.985871 C175.825419,31.985871 178.472387,27.4476129 178.989032,24.6614194 C179.629806,21.2059355 177.964968,17.3889677 173.116387,17.3889677 C168.215806,17.3889677 165.285355,21.5154194 164.683161,24.7645806 C164.185806,27.4476129 165.303806,31.985871 170.461871,31.985871 Z M184.891871,39.0008387 L176.330323,39.0008387 L176.904,35.906 L176.800839,35.906 C174.840774,38.6905161 171.043097,39.9804516 167.689935,39.9804516 C158.612581,39.9804516 154.619484,32.8631613 156.140065,24.6614194 C157.880387,15.2737419 165.727355,9.39522581 173.360452,9.39522581 C178.05471,9.39522581 180.263871,11.6639355 180.970065,13.4185161 L181.074065,13.4185161 L181.637677,10.3748387 L190.199226,10.3748387 L184.891871,39.0008387 L184.891871,39.0008387 Z" id="Fill-7" fill="#DC5B6B"></path>
                <polyline id="Fill-8" fill="#DC5B6B" points="204.900129 10.3748387 209.026581 10.3748387 207.821355 16.8731613 203.694903 16.8731613 199.593613 39.0008387 191.031226 39.0008387 195.133355 16.8731613 190.903742 16.8731613 192.108968 10.3748387 196.338581 10.3748387 198.107419 0.83283871 206.669806 0.83283871 204.900129 10.3748387"></polyline>
                <polyline id="Fill-9" fill="#DC5B6B" points="220.94129 10.3748387 225.067742 10.3748387 223.862516 16.8731613 219.736065 16.8731613 215.634774 39.0008387 207.073226 39.0008387 211.175355 16.8731613 206.945742 16.8731613 208.150968 10.3748387 212.380581 10.3748387 214.148581 0.83283871 222.710968 0.83283871 220.94129 10.3748387"></polyline>
                <path d="M237.051226,31.985871 C242.413935,31.985871 245.060903,27.4476129 245.578387,24.6614194 C246.218323,21.2059355 244.553484,17.3889677 239.705742,17.3889677 C234.805161,17.3889677 231.87471,21.5154194 231.271677,24.7645806 C230.774323,27.4476129 231.892323,31.985871 237.051226,31.985871 Z M251.481226,39.0008387 L242.918839,39.0008387 L243.493355,35.906 L243.389355,35.906 C241.42929,38.6905161 237.631613,39.9804516 234.278452,39.9804516 C225.201097,39.9804516 221.208,32.8631613 222.729419,24.6614194 C224.468903,15.2737419 232.315871,9.39522581 239.949806,9.39522581 C244.643226,9.39522581 246.853226,11.6639355 247.559419,13.4185161 L247.662581,13.4185161 L248.226194,10.3748387 L256.788581,10.3748387 L251.481226,39.0008387 L251.481226,39.0008387 Z" id="Fill-10" fill="#DC5B6B"></path>
                <path d="M286.613097,28.1169032 C283.86129,34.6160645 277.150774,39.9284516 269.414516,39.9284516 C260.749806,39.9284516 255.358581,33.1206452 256.936194,24.6102581 C258.494516,16.2021935 266.307935,9.39522581 274.869484,9.39522581 C282.451419,9.39522581 287.660645,14.398129 287.804065,21.4130968 L279.139355,21.4130968 C278.574903,19.4521935 277.254774,17.3889677 273.696129,17.3889677 C269.660258,17.1834839 266.304581,20.5349677 265.539677,24.6614194 C264.765548,28.839871 266.925226,31.933871 270.999677,31.933871 C274.558323,31.933871 276.643355,29.8706452 277.896387,28.1169032 L286.613097,28.1169032" id="Fill-11" fill="#DC5B6B"></path>
                <polyline id="Fill-12" fill="#DC5B6B" points="293.839419 0.83283871 302.401806 0.83283871 298.709806 20.742129 298.812968 20.742129 308.67871 10.3748387 318.838839 10.3748387 305.726452 22.9596774 313.222839 39.0008387 303.525677 39.0008387 297.980968 25.2292258 297.877806 25.2292258 295.324774 39.0008387 286.762387 39.0008387 293.839419 0.83283871"></polyline>
                <polyline id="Fill-13" fill="#DC5B6B" points="292.980581 51.5940645 284.417355 51.5848387 286.043613 42.8169677 294.606 42.8253548 292.980581 51.5940645"></polyline>
                <path d="M326.181742,42.281871 C325.313677,42.281871 324.485871,42.0579355 323.787226,41.6083871 C322.389935,40.710129 321.724839,39.0511613 322.041032,37.2546452 L326.48871,12.0296129 C326.804903,10.2339355 328.057097,8.57412903 329.770581,7.67587097 C331.483226,6.77845161 333.400516,6.77845161 334.798645,7.67587097 L354.418581,20.2883871 C355.815871,21.1858065 356.481806,22.8456129 356.164774,24.642129 C355.847742,26.4378065 354.597226,28.0984516 352.883742,28.9967097 L328.81529,41.6083871 C327.958129,42.0579355 327.049806,42.281871 326.181742,42.281871" id="Fill-14" fill="#DC5B6B"></path>
                <g id="Group-18" transform="translate(326.258065, 0.000000)">
                    <path d="M4.62548387,35.5168387 C3.77754839,35.5168387 2.96903226,35.2979355 2.28883871,34.860129 C0.925096774,33.9836774 0.275935484,32.364129 0.584580645,30.6112258 L4.92406452,6.00180645 C5.23270968,4.24974194 6.45303226,2.63019355 8.12541935,1.75374194 C9.79696774,0.878129032 11.6664516,0.878129032 13.0310323,1.75374194 L32.1729032,14.0584516 C33.5358065,14.9349032 34.1858065,16.5544516 33.8771613,18.3073548 C33.5676774,20.0594194 32.3473548,21.6789677 30.6749677,22.5554194 L7.19277419,34.860129 C6.35741935,35.2979355 5.47174194,35.5168387 4.62548387,35.5168387" id="Fill-15" fill="#FFFFFE"></path>
                    <path d="M10.6935484,1.51806452 C9.91187097,1.51806452 9.09329032,1.72103226 8.32083871,2.12529032 C6.76587097,2.93967742 5.62270968,4.45354839 5.33670968,6.07477419 L0.997225806,30.6841935 C0.719612903,32.2618065 1.30167742,33.7270323 2.51529032,34.5070323 C3.72387097,35.2861935 5.49103226,35.2786452 6.99819355,34.4885806 L30.4803871,22.183871 C32.0345161,21.3694839 33.1785161,19.8556129 33.4636774,18.2343871 C33.7412903,16.6567742 33.1600645,15.1915484 31.9464516,14.4115484 L12.8045806,2.10683871 C12.1923226,1.71432258 11.4618065,1.51806452 10.6935484,1.51806452 Z M4.62548387,35.9361935 C3.6836129,35.9361935 2.79709677,35.6854194 2.06154839,35.2115484 C0.558580645,34.2461935 -0.166064516,32.4547097 0.171935484,30.5382581 L4.51141935,5.92883871 C4.84019355,4.05683871 6.15109677,2.31483871 7.93083871,1.38219355 C9.73154839,0.439483871 11.7712903,0.447870968 13.2583226,1.40064516 L32.4001935,13.7061935 C33.9031613,14.6723871 34.6278065,16.4630323 34.2898065,18.3803226 C33.9601935,20.2523226 32.650129,21.9943226 30.8703871,22.926129 L7.38819355,35.2316774 C6.5083871,35.692129 5.55309677,35.9361935 4.62548387,35.9361935 L4.62548387,35.9361935 Z" id="Fill-17" fill="#DC5B6B"></path>
                </g>
            </g>
        </g>
    </g>
</svg>