<?xml version="1.0" encoding="utf-8"?>
<!-- Generator: Adobe Illustrator 20.0.0, SVG Export Plug-In . SVG Version: 6.00 Build 0)  -->
<svg version="1.1" id="" xmlns="http://www.w3.org/2000/svg" xmlns:xlink="http://www.w3.org/1999/xlink" x="0px" y="0px"
	 viewBox="0 0 214.2 95.8" style="enable-background:new 0 0 214.2 95.8;" xml:space="preserve" focusable="false">
    <style type="text/css">
	.logoColor-razplus {fill:#C83192;}
    </style>
<g>
	<path class="color logoColor-razplus" d="M56.4,39c-1.9,0-3.6,1.9-3.8,4.4c-1.8-3.3-4.7-4.9-7.6-4.9c-7.3,0-13.2,9-13.2,20.7c0,12,5.7,20.5,13.2,20.5
		c3.1,0,5.6-1.7,7.6-5c0.6,2.8,1.5,4.5,3.8,4.5c3.8,0,3.8-4.2,3.8-7V46C60.2,43.2,60.2,39,56.4,39z M46,70c-4.3,0-6.3-5.6-6.3-10.7
		s1.9-10.9,6.3-10.9c4.2,0,6.2,5.8,6.2,10.9C52.2,64.3,50.2,70,46,70z"/>
	<path class="color logoColor-razplus" d="M17.6,56.8c5.7-1.2,10.3-5.8,10.3-14c0-11.6-5.3-16.7-13.8-16.7H4.3c-2.8,0-4.3,2.2-4.3,5.8v41.6
		c0,3.7,1.8,5.8,4.2,5.8s4.2-2.1,4.2-5.8V57.4h0.1l12.3,19.9c0.9,1.4,2.2,1.9,3.2,1.9c2.4,0,4.2-2.8,4.2-5.7c0-1-0.3-2.1-1.1-3.3
		L17.6,56.8z M14.1,49.4H8.3V36.3H14c3.1,0,5.2,2.3,5.2,6.5S17.1,49.4,14.1,49.4z"/>
	<path class="color logoColor-razplus" d="M63.8,29.4c-1.8-0.7-3.5-0.4-4.4,0.3c-1,0.8-0.3,2,0.3,2.4c0.6,0.4,1.3,0,2.1-0.1c1.2,0,2,0.5,2.7-0.1
		C65.3,31.3,64.8,29.8,63.8,29.4z"/>
	<path class="color logoColor-razplus" d="M87.2,69.5H76.6L89.2,46c0.6-1.1,0.8-1.8,0.8-3.2c0-2.9-1.9-3.3-2.6-3.3H69.3c-2,0-3.6,1.7-3.6,4.7
		s1.6,4.7,3.6,4.7h9.3L66,72.3c-0.3,0.6-0.7,1.7-0.7,2.9c0,2.4,1.5,3.6,3.3,3.6h18.6c2,0,3.6-1.7,3.6-4.7
		C90.8,71.2,89.2,69.5,87.2,69.5z"/>
	<path class="color logoColor-razplus" d="M51.7,13.6c0.4,0.5,0.3,1,0.8,1.5c1.1,0.9,3.9,0.4,3.9-1c0-0.7-0.8-1-1.2-1.7l-3.5-6.3c-0.3-0.6-0.4-1-1-1.4
		c-1.3-0.9-3.9,0.4-3.8,1.9l1.3,1.1L51.7,13.6z"/>
	<path class="color logoColor-razplus" d="M68.6,8.8c0.1,1-0.5,2.3-0.3,2.6c1,1.1,2.8,0.7,3.7-0.4c0.8-0.9,0.1-1.7,0-2.7L71.9,3c0-0.9,0.9-1.5,0.4-2.3
		c-0.6-0.9-2.8-1-3.7,0c-0.6,0.6-0.4,1.6-0.3,2.6L68.6,8.8z"/>
	<path class="color logoColor-razplus" d="M35.8,26.1l2,0.9l3.2,1.4c1.1,0.5,1.7,1.3,2.9,1c1.5-0.3,2.6-2.7,1.8-3.9c-0.2-0.3-1.8-0.4-2.9-0.8l-5.4-2.4
		c-1-0.4-2-1-2.9-0.8c-1.3,0.4-2.1,3.2-1.4,4C33.8,26.3,34.8,25.8,35.8,26.1z"/>
	<path class="color logoColor-razplus" d="M77,32c1.2,0,2,0.5,2.7-0.1s0.3-2.1-0.7-2.5c-1.8-0.7-3.5-0.4-4.4,0.3c-1,0.8-0.3,2,0.3,2.4
		C75.5,32.4,76.2,32,77,32z"/>
	<path class="color logoColor-razplus" d="M90.6,5.2C90,5.5,90,6,89.6,6.5L85,13.6c-0.4,0.7-1.2,0.9-1.2,1.7c0,1.4,2.8,1.9,3.9,1
		c0.5-0.4,0.4-0.9,0.8-1.4L93,8.3l1.4-1.1C94.6,5.7,92,4.4,90.6,5.2z"/>
	<path class="color logoColor-razplus" d="M69.4,15.5c-11.8,0-21.4,7-21.4,15.6c0,1.4,1.3,2.5,2.9,2.5c1.6,0,2.8-1.1,2.8-2.5c0-5.8,7-10.6,15.7-10.6
		S85.2,25.2,85.2,31c0,1.4,1.3,2.5,2.9,2.5s2.8-1.1,2.8-2.5C90.8,22.4,81.2,15.4,69.4,15.5z"/>
	<path class="color logoColor-razplus" d="M95.5,29.9c1.3,0.2,1.7-0.6,2.8-1.1l5.5-2.6l2-0.9c0.9-0.4,2,0.1,2.5-0.7c0.6-0.8-0.4-3.6-1.7-4
		c-0.9-0.2-1.8,0.4-2.8,0.9l-7.7,3.7c-1,0.5-2.6,0.6-2.8,0.9C92.7,27.3,94,29.6,95.5,29.9z"/>
	<path class="color logoColor-razplus" d="M108.1,53H92.3c-2.1,0.2-3.2,2.1-3.2,4.7c0,2.5,1.1,4.4,3.2,4.6h15.8c2.1-0.2,3.2-2.1,3.2-4.6
		C111.3,55.1,110.2,53.3,108.1,53z"/>
	<g>
		<path class="color logoColor-razplus" d="M125.2,72.6c0,3.9-1.8,6.7-4.4,6.7c-2.7,0-4.4-2.8-4.4-6.7V33.3c0-4.6,1.9-7.2,5.3-7.2h9.1
			c8.5,0,13.9,6.8,13.9,17.7c0,10.6-5,17.5-12.7,17.5h-6.7v11.3H125.2z M129.6,50.8c3.6,0,5.9-2.8,5.9-7.1s-2.1-7.2-5.4-7.2h-4.9
			v14.3H129.6z"/>
		<path class="color logoColor-razplus" d="M157,73c0,3.6-1.8,6-4.4,6c-2.6,0-4.4-2.4-4.4-6V30.8c0-3.5,1.8-5.9,4.4-5.9c2.6,0,4.4,2.4,4.4,5.9V32V73z"/>
		<path class="color logoColor-razplus" d="M188.4,62.9c0,9.8-5.3,16.3-13.2,16.3S162,72.7,162,62.9V44.5c0-3.9,1.7-6.4,4.2-6.4s4.3,2.6,4.3,6.4v17
			c0,4.1,1.8,6.8,4.7,6.8c2.8,0,4.7-2.7,4.7-6.8v-17c0-3.9,1.7-6.4,4.3-6.4c2.5,0,4.2,2.6,4.2,6.4v1.3V62.9z"/>
		<path class="color logoColor-razplus" d="M200.3,61.8c-5.2-2.7-7.3-5.9-7.3-11.1c0-7.5,4.5-12.9,10.9-12.9c5.1,0,9.6,3.7,9.6,7.9c0,2.6-1.6,5-3.2,5
			c-1,0-1,0-3.6-1.6c-1.3-0.8-2.4-1.2-3.2-1.2c-1.4,0-2.3,0.8-2.3,2c0,1.5,0.5,1.9,4.4,4c6.3,3.5,8.5,6.5,8.5,12.3
			c0,7.6-4.6,12.9-11.2,12.9c-5.8,0-10.9-3.9-10.9-8.3c0-2.6,1.7-5.2,3.5-5.2c0.7,0,1.3,0.2,1.8,0.5l2.6,1.6
			c1.4,0.9,2.5,1.3,3.4,1.3c1.4,0,2.5-1.2,2.5-2.6s-0.6-2-3.3-3.5L200.3,61.8z"/>
	</g>
</g>
</svg>
