<?xml version="1.0" encoding="utf-8"?>
<!-- Generator: Adobe Illustrator 21.1.0, SVG Export Plug-In . SVG Version: 6.00 Build 0)  -->
<svg version="1.1" id="" xmlns="http://www.w3.org/2000/svg" xmlns:xlink="http://www.w3.org/1999/xlink" x="0px" y="0px"
	 viewBox="0 0 308 96" style="enable-background:new 0 0 308 96;" xml:space="preserve" focusable="false">
<style type="text/css">
	.logoColor-saz{fill:#128641;}
</style>
<g>
	<path class="logoColor-saz color" d="M9.6,39.6c0-3.1,2.2-4.8,4.6-4.8c3.3,0,5.1,2.2,7.5,2.2s3.7-2.6,3.7-5.6c0-5.9-7.9-7.5-11-7.5
		c-7.5,0-13.9,6.5-13.9,17c0,17.4,18.7,12,18.7,20.9c0,3.6-2,6.5-5.8,6.5c-3.6,0-6.8-2.9-9.4-2.9c-2.3,0-3.7,2.4-3.7,5.4
		c0,7.1,9.3,8.4,13.6,8.4c7.8,0,14.3-6.7,14.3-17.4C28.3,42.4,9.6,47.3,9.6,39.6z"/>
	<path class="logoColor-saz color" d="M47.6,47.3c2.6,0,4.3,2.1,6.4,2.1c1.9,0,3.1-2.9,3.1-5.1c0-5.2-6.7-6.8-9.9-6.8c-8.5,0-14.4,9.9-14.4,20.9
		c0,11.2,5.8,20.7,14.4,20.7c2.9,0,9.9-1.9,9.9-7.4c0-2.5-1.6-4.7-3.4-4.7c-0.9,0-3.9,2.2-6,2.2c-4.3,0-6.8-5.6-6.8-10.8
		C40.8,52.8,43.1,47.3,47.6,47.3z"/>
	<path class="logoColor-saz color" d="M85.9,26.4l2,0.9l3.2,1.4c1.1,0.5,1.7,1.3,2.9,1c1.5-0.3,2.6-2.7,1.8-3.9c-0.2-0.3-1.8-0.4-2.9-0.8l-5.5-2.4
		c-1-0.4-2-1-2.9-0.8c-1.3,0.4-2.1,3.2-1.4,4C83.8,26.6,84.9,26.1,85.9,26.4z"/>
	<path class="logoColor-saz color" d="M66.1,37.9c-2.3,0-4,2.4-4,6v28.7c0,3.6,1.7,6,4,6c2.3,0,4-2.4,4-6V43.8C70.1,40.3,68.4,37.9,66.1,37.9z"/>
	<path class="logoColor-saz color" d="M66.1,21.7c-2.4,0-4.5,2.8-4.5,5.9c0,3.3,2.1,6.2,4.5,6.2c2.5,0,4.5-2.8,4.5-6.2
		C70.6,24.5,68.5,21.7,66.1,21.7z"/>
	<path class="logoColor-saz color" d="M101.9,13.7c0.4,0.5,0.3,1,0.8,1.5c1.1,0.9,3.9,0.4,3.9-1c0-0.7-0.8-1-1.2-1.7l-3.5-6.4c-0.3-0.6-0.4-1-1-1.4
		c-1.3-0.9-3.9,0.4-3.8,1.9l1.3,1.1L101.9,13.7z"/>
	<path class="logoColor-saz color" d="M138.3,16.5c0.5-0.4,0.4-0.9,0.8-1.5l4.5-6.7l1.4-1.1c0.1-1.5-2.5-2.8-3.8-1.9c-0.6,0.3-0.6,0.8-1,1.3
		l-4.6,7.2c-0.4,0.7-1.2,0.9-1.2,1.7C134.3,16.9,137.1,17.4,138.3,16.5z"/>
	<path class="logoColor-saz color" d="M146.1,30.2c1.3,0.2,1.7-0.6,2.8-1.1l5.6-2.6l2-0.9c0.9-0.4,2,0.1,2.5-0.7c0.6-0.8-0.4-3.6-1.7-4
		c-0.9-0.2-1.8,0.4-2.8,0.9l-7.8,3.7c-1,0.5-2.6,0.6-2.8,0.9C143.3,27.6,144.6,29.9,146.1,30.2z"/>
	<path class="logoColor-saz color" d="M119,8.9c0.1,1-0.5,2.3-0.3,2.6c1,1.1,2.8,0.7,3.7-0.4c0.8-0.9,0.1-1.6,0-2.7L122.3,3c0-0.9,0.9-1.5,0.4-2.3
		c-0.6-0.9-2.8-1-3.7,0c-0.6,0.6-0.4,1.6-0.3,2.6L119,8.9z"/>
	<path class="logoColor-saz color" d="M124.7,37.5c-3.8,0-6.3,1.5-7.8,4.4c-0.3-2.4-1.6-3.9-3.7-3.9c-2.3,0-4,2.4-4,6v28.7c0,3.6,1.7,6,4,6
		s4-2.4,4-6V53.8c0-4.1,1.8-7.4,5.1-7.4c2.9,0,5.2,2.4,5.2,7.4v18.8c0,3.6,1.7,6,4,6s4-2.4,4-6V51.9C135.7,42.8,131,37.5,124.7,37.5
		z"/>
	<path class="logoColor-saz color" d="M156.2,47.3c2.6,0,4.3,2.1,6.4,2.1c1.9,0,3.1-2.9,3.1-5.1c0-5.2-6.7-6.8-9.9-6.8c-8.5,0-14.4,9.9-14.4,20.9
		c0,11.2,5.8,20.7,14.4,20.7c2.9,0,9.9-1.9,9.9-7.4c0-2.5-1.6-4.7-3.4-4.7c-0.9,0-3.9,2.2-6,2.2c-4.3,0-6.8-5.6-6.8-10.8
		C149.5,52.8,151.7,47.3,156.2,47.3z"/>
	<path class="logoColor-saz color" d="M198,57c0-9-5.8-19.6-14.5-19.6c-8.5,0-14.4,9.9-14.4,20.9c0,11.9,6.1,20.7,15.1,20.7c6,0,13.2-4.4,13.2-9.1
		c0-2.3-1.6-4.6-3.3-4.6c-2.1,0-4.9,4.3-9.2,4.3c-3.7,0-7.1-2.4-7.7-7.8h17.2C197,61.8,198,60.3,198,57z M177.1,54.6
		c0.4-4.5,2.8-8.2,6.4-8.2c3.7,0,6,3.5,6.5,8.2H177.1z"/>
	<path class="logoColor-saz color" d="M104,57c0-9-5.8-19.6-14.5-19.6c-8.5,0-14.4,9.9-14.4,20.9c0,11.9,6.1,20.7,15.1,20.7c6,0,13.2-4.4,13.2-9.1
		c0-2.3-1.6-4.6-3.3-4.6c-2.1,0-4.9,4.3-9.2,4.3c-3.7,0-7.1-2.4-7.7-7.8h17.2C103,61.8,104,60.3,104,57z M83.1,54.6
		c0.4-4.5,2.8-8.2,6.4-8.2c3.7,0,6,3.5,6.5,8.2H83.1z"/>
	<path class="logoColor-saz color" d="M112.1,32.3c1.2,0,2,0.5,2.7-0.1c0.7-0.6,0.3-2.1-0.7-2.5c-1.8-0.7-3.5-0.4-4.4,0.3c-1,0.8-0.3,2,0.3,2.4
		S111.3,32.3,112.1,32.3z"/>
	<path class="logoColor-saz color" d="M125.3,32.4c0.6,0.4,1.3,0,2.1-0.1c1.2,0,2,0.5,2.7-0.1c0.7-0.6,0.3-2.1-0.7-2.5c-1.8-0.7-3.5-0.4-4.4,0.3
		C124,30.7,124.6,32,125.3,32.4z"/>
	<path class="logoColor-saz color" d="M119.7,15.7c-11.9,0-21.6,7.1-21.6,15.7c0,1.4,1.3,2.5,2.9,2.5s2.8-1.1,2.8-2.5c0-5.9,7.1-10.7,15.8-10.7
		s15.9,4.7,15.9,10.6c0,1.4,1.3,2.5,2.9,2.5c1.6,0,2.8-1.1,2.8-2.5C141.4,22.6,131.7,15.6,119.7,15.7z"/>
	<path class="logoColor-saz color" d="M274.9,51.7h-18.4c-2.1,0.2-3.2,2.1-3.2,4.7c0,2.5,1.1,4.4,3.2,4.6h18.4c2.1-0.2,3.2-2.1,3.2-4.6
		C278.2,53.8,277.1,51.9,274.9,51.7z"/>
	<path class="logoColor-saz color" d="M241.8,30.2c-0.9-3.6-3-6.2-6-6.2c-2.8,0-5,2.7-6,6.2l-11.3,40.7c-0.1,0.4-0.4,1.3-0.4,2.4
		c0,3,1.9,5.2,4.1,5.2c2.3,0,3.4-1.6,4-3.9l1.7-7h15.5l1.7,7.1c0.6,2.2,1.7,3.8,4.1,3.8c2.1,0,3.8-2,3.8-4.9c0-0.5-0.1-1.6-0.4-2.7
		L241.8,30.2z M230.5,57.4l5.4-21.7h0.1l5.2,21.7H230.5z"/>
	<path class="logoColor-saz color" d="M303.6,68.3h-16.3l18-33.2c0.7-1.3,1.2-3.1,1.2-4.7c0-2.6-1.4-5.4-4.7-5.4h-20.5c-2.1,0-3.9,2.2-3.9,5
		c0,3,1.7,4.7,3.9,4.7H296l-18,33.7c-0.7,1.3-1.1,2.8-1.1,4.3c0,3.1,1.7,5.4,4.7,5.4h22c2,0,4-2.1,4-4.9
		C307.6,70,306,68.3,303.6,68.3z"/>
</g>
</svg>
