<?xml version="1.0" encoding="utf-8"?>
<!-- Generator: Adobe Illustrator 21.1.0, SVG Export Plug-In . SVG Version: 6.00 Build 0)  -->
<svg version="1.1" id="" xmlns="http://www.w3.org/2000/svg" xmlns:xlink="http://www.w3.org/1999/xlink" x="0px" y="0px"
	 viewBox="0 0 286 96" style="enable-background:new 0 0 286 96;" xml:space="preserve" focusable="false">
<style type="text/css">
	.logoColor-waz{fill:#F9A715;}
</style>
<g>
	<path class="logoColor-waz color" d="M44.6,26.7c-2.6,0-3.8,2.1-4.3,5.2l-4.6,30.9h-0.1l-7.2-31.9c-0.6-2.6-2.3-4.3-4.2-4.3s-3.7,1.8-4.3,4.3
		l-7.1,31.8h-0.1L8.2,31.9c-0.5-3.2-1.8-5.2-4.3-5.2c-2.4,0-3.8,2.5-3.8,4.8c0,1,0.1,1.6,0.2,2.5l7,39.6c0.6,3,2.4,5.7,5.4,5.7
		c2.6,0,4.7-2.4,5.4-5.3l6.3-28h0.1l6.3,28c0.7,2.9,2.7,5.3,5.4,5.3c3,0,4.8-2.6,5.4-5.7l7-39.6c0.2-1,0.2-1.5,0.2-2.5
		C48.5,29.1,47,26.7,44.6,26.7z"/>
	<path class="logoColor-waz color" d="M64.6,39.7c-2.5,0-4,1.5-5.5,4.3H59c0-3.3-1.8-4.3-3.8-4.3s-4,1.8-4,5.2v28.4c0,3.5,1.7,5.8,3.9,5.8
		c2.3,0,3.9-2.4,3.9-5.8v-16c0-4.1,2.4-5.5,4.7-7c2.4-1.5,4.7-1.7,4.7-5.1C68.5,41.6,66.6,39.7,64.6,39.7z"/>
	<path class="logoColor-waz color" d="M75.4,24C73,24,71,26.7,71,29.7c0,3.2,2.1,6,4.4,6c2.5,0,4.4-2.7,4.4-6C79.8,26.8,77.8,24,75.4,24z"/>
	<path class="logoColor-waz color" d="M75.4,39.7c-2.3,0-3.9,2.4-3.9,5.8v27.8c0,3.5,1.7,5.8,3.9,5.8c2.3,0,3.9-2.4,3.9-5.8V45.5
		C79.4,42.1,77.8,39.7,75.4,39.7z"/>
	<path class="logoColor-waz color" d="M161,30.5c-1,0.8-0.3,2,0.3,2.4s1.3,0,2.1-0.1c1.2,0,2,0.5,2.6-0.1c0.7-0.6,0.3-2.1-0.7-2.5
		C163.7,29.5,161.9,29.9,161,30.5z"/>
	<path class="logoColor-waz color" d="M254.1,53.2h-17.8c-2.1,0.2-3.1,2.1-3.1,4.6s1.1,4.3,3.1,4.5h17.8c2.1-0.2,3.1-2.1,3.1-4.5
		C257.2,55.2,256.2,53.4,254.1,53.2z"/>
	<path class="logoColor-waz color" d="M155.3,10.1c0.1,1-0.5,2.3-0.3,2.5c1,1.1,2.7,0.7,3.6-0.4c0.8-0.9,0.1-1.7,0-2.6l-0.1-5.2
		c0-0.9,0.9-1.5,0.4-2.3c-0.6-0.9-2.7-1-3.6,0c-0.6,0.6-0.4,1.6-0.3,2.5L155.3,10.1z"/>
	<path class="logoColor-waz color" d="M97.9,40.1h-2.3v-6.3c0-3.5-1.7-5.8-3.9-5.8c-2.3,0-3.9,2.4-3.9,5.8v6.3H86c-2,0-3.4,2-3.4,4.6
		c0,2.8,1.3,4.6,3.4,4.6h1.8v24.1c0,3.5,1.7,5.8,3.9,5.8c2.3,0,3.9-2.4,3.9-5.8V49.3h2.3c2.1,0,3.7-1.3,3.7-4.6
		C101.6,41.4,100,40.1,97.9,40.1z"/>
	<path class="logoColor-waz color" d="M123,27.1l2,0.9l3.1,1.4c1.1,0.5,1.7,1.3,2.8,1c1.5-0.3,2.5-2.6,1.8-3.8c-0.2-0.3-1.8-0.4-2.8-0.8l-5.3-2.4
		c-1-0.4-2-1-2.8-0.8c-1.3,0.4-2.1,3.1-1.4,3.9C121.1,27.3,122.1,26.8,123,27.1z"/>
	<path class="logoColor-waz color" d="M138.7,14.8c0.4,0.5,0.3,1,0.8,1.5c1.1,0.9,3.8,0.4,3.8-1c0-0.7-0.8-1-1.2-1.7l-3.4-6.2c-0.3-0.6-0.4-1-1-1.4
		c-1.3-0.9-3.8,0.4-3.7,1.9l1.3,1.1L138.7,14.8z"/>
	<path class="logoColor-waz color" d="M171.4,31.8c0,1.4,1.3,2.5,2.8,2.5s2.7-1.1,2.7-2.5c0-8.4-9.5-15.2-21.1-15.2s-21,6.9-21,15.3
		c0,1.4,1.3,2.5,2.8,2.5c1.6,0,2.7-1.1,2.7-2.5c0-5.7,6.9-10.4,15.4-10.4C164.5,21.5,171.4,26.1,171.4,31.8z"/>
	<path class="logoColor-waz color" d="M108,39.7c-2.3,0-3.9,2.4-3.9,5.8v27.8c0,3.5,1.7,5.8,3.9,5.8c2.3,0,3.9-2.4,3.9-5.8V45.5
		C111.9,42.1,110.3,39.7,108,39.7z"/>
	<path class="logoColor-waz color" d="M192.5,21.7c-0.9-0.2-1.8,0.4-2.7,0.9l-7.6,3.6c-1,0.5-2.5,0.6-2.7,0.9c-0.7,1.2,0.7,3.4,2.2,3.7
		c1.3,0.2,1.7-0.6,2.7-1.1l5.4-2.5l2-0.9c0.9-0.4,2,0.1,2.5-0.7C194.8,24.7,193.8,22,192.5,21.7z"/>
	<path class="logoColor-waz color" d="M222,32.3c-0.9-3.5-2.9-6-5.8-6c-2.7,0-4.9,2.6-5.8,6l-11,39.5c-0.1,0.4-0.4,1.3-0.4,2.4c0,2.9,1.9,5.1,4,5.1
		c2.3,0,3.3-1.6,3.9-3.8l1.7-6.8h15.1l1.7,6.9c0.6,2.2,1.7,3.7,4,3.7c2.1,0,3.7-2,3.7-4.8c0-0.5-0.1-1.6-0.4-2.6L222,32.3z
		 M211,58.6l5.2-21.1h0.1l5.1,21.1H211z"/>
	<path class="logoColor-waz color" d="M176.8,6.6c-0.6,0.3-0.6,0.8-1,1.3l-4.5,7c-0.4,0.7-1.2,0.9-1.2,1.7c0,1.4,2.7,1.9,3.8,1
		c0.5-0.4,0.4-0.9,0.8-1.5l4.4-6.5l1.4-1.1C180.7,7.1,178.1,5.8,176.8,6.6z"/>
	<path class="logoColor-waz color" d="M282.1,69.2h-15.8L283.7,37c0.7-1.3,1.2-3,1.2-4.6c0-2.5-1.4-5.2-4.6-5.2h-19.9c-2.1,0-3.8,2.2-3.8,4.9
		c0,2.9,1.7,4.6,3.8,4.6h14.3l-17.6,32.7c-0.7,1.3-1.1,2.7-1.1,4.2c0,3,1.7,5.2,4.6,5.2H282c2,0,3.9-2.1,3.9-4.8
		C286,70.9,284.3,69.2,282.1,69.2z"/>
	<path class="logoColor-waz color" d="M133.6,39.3c-3.7,0-6.1,1.5-7.6,4.3c-0.3-2.4-1.6-3.8-3.6-3.8c-2.3,0-3.9,2.4-3.9,5.8v27.8
		c0,3.5,1.7,5.8,3.9,5.8c2.3,0,3.9-2.4,3.9-5.8V55.2c0-4,1.8-7.2,5-7.2c2.8,0,5.1,2.4,5.1,7.2v18.2c0,3.5,1.7,5.8,3.9,5.8
		c2.3,0,3.9-2.4,3.9-5.8v-20C144.3,44.5,139.8,39.3,133.6,39.3z"/>
	<path class="logoColor-waz color" d="M173.8,39.7c-2.2,0-3.4,1.6-3.9,4.3c-1.5-3.2-4.5-4.8-7.2-4.8c-7.9,0-12.9,9.8-12.9,20.3
		c0,10.4,3.8,20,12.1,20c3.6,0,6.3-1.8,7.9-4.9h0.1v2.5c0,5.3-2.8,8.2-6.7,8.2c-4.5,0-7.3-3.2-9.8-3.2c-1.6,0-3.1,2.6-3.1,4.6
		c0,5.7,9.1,7.8,12.4,7.8c8.9,0,15.1-6.3,15.1-18.9V45.5C177.7,42.1,176.1,39.7,173.8,39.7z M163.7,70.1c-4.1,0-6.1-5.1-6.1-10.7
		c0-4.9,2.1-10.5,6.1-10.5c4.3,0,6.2,5.8,6.2,10.9C169.9,64.8,167.9,70.1,163.7,70.1z"/>
	<path class="logoColor-waz color" d="M108,24c-2.4,0-4.4,2.7-4.4,5.7c0,3.2,2.1,6,4.4,6c2.5,0,4.4-2.7,4.4-6C112.4,26.8,110.3,24,108,24z"/>
	<path class="logoColor-waz color" d="M151.2,32.8c0.7-0.6,0.3-2.1-0.7-2.5c-1.8-0.7-3.4-0.4-4.3,0.3c-1,0.8-0.3,2,0.3,2.4s1.3,0,2.1-0.1
		C149.8,32.9,150.6,33.3,151.2,32.8z"/>
</g>
</svg>
