<svg xmlns="http://www.w3.org/2000/svg" width="20" height="18" viewBox="0 0 20 18">
    <path fill="#061b52" d="M1.119 16.87a3.8 3.8 0 0 0 5.411 0l8.657-8.736a2.308 2.308 0 0 0 .677-1.634 2.362 2.362 0 0 0-2.3-2.322 2.267 2.267 0 0 0-1.625.686L4.365 12.5a.777.777 0 0 0 0 1.092.76.76 0 0 0 1.082 0l7.575-7.645a.761.761 0 0 1 .545-.231.789.789 0 0 1 .767.774.77.77 0 0 1-.226.547l-8.66 8.739a2.28 2.28 0 0 1-3.246 0 2.334 2.334 0 0 1 0-3.276l9.739-9.829a3.806 3.806 0 0 1 5.411 0 3.892 3.892 0 0 1 0 5.461l-7.576 7.646a.777.777 0 0 0 0 1.092.76.76 0 0 0 1.082 0l7.575-7.644a5.447 5.447 0 0 0 0-7.645 5.327 5.327 0 0 0-7.575 0L1.119 11.41a3.889 3.889 0 0 0 0 5.46z"/>
</svg>
