<svg width="44" height="44" viewBox="0 0 44 44" fill="none" xmlns="http://www.w3.org/2000/svg">
<g filter="url(#filter0_d)">
<path d="M29 3H17C11.4772 3 7 7.47715 7 13V25C7 30.5228 11.4772 35 17 35H29C34.5228 35 39 30.5228 39 25V13C39 7.47715 34.5228 3 29 3Z" fill="url(#paint0_linear)"/>
</g>
<g clip-path="url(#clip0)">
<path d="M30.1887 20.2332C30.1562 20.2616 30.119 20.2837 30.0773 20.2994L20.8118 23.6887C20.6744 23.7392 20.5199 23.6991 20.4235 23.5887L17.628 20.3875C17.5315 20.277 17.5126 20.1186 17.5811 19.9892L22.1874 11.2646C22.2422 11.1604 22.3436 11.0924 22.4601 11.0782C22.576 11.0645 22.6909 11.1089 22.7678 11.1969L30.2225 19.7334C30.2994 19.8215 30.3279 19.9414 30.2987 20.0544C30.2804 20.1249 30.2421 20.1866 30.1887 20.2332V20.2332ZM20.7967 22.9392L29.3498 19.8109L22.5735 12.0513L18.3218 20.1051L20.7967 22.9392Z" fill="white"/>
<path d="M20.9232 23.6225L19.0559 25.2532C18.4674 25.7671 17.5709 25.7065 17.057 25.118L15.6592 23.5174C15.1453 22.9289 15.2059 22.0324 15.7944 21.5185L17.6618 19.8878C17.809 19.7592 18.0329 19.7743 18.1615 19.9216L20.957 23.1228C21.0856 23.27 21.0705 23.4939 20.9232 23.6225ZM16.2603 22.052C15.9658 22.3092 15.9355 22.757 16.1927 23.0515L17.5905 24.6521C17.8477 24.9466 18.2954 24.9769 18.5899 24.7197L20.1905 23.3219L17.8609 20.6543L16.2603 22.052Z" fill="white"/>
<path d="M25.2517 26.4253L23.6511 27.8231C23.5183 27.9391 23.3204 27.9398 23.1867 27.8243L19.3917 24.5555C19.2437 24.428 19.2272 24.2045 19.3552 24.0561C19.4824 23.9131 19.7062 23.8916 19.8547 24.0196L23.4168 27.0874L24.487 26.1527L21.3565 23.2873C21.2129 23.1551 21.2029 22.9315 21.3342 22.7868C21.462 22.6479 21.6899 22.6332 21.8347 22.7644L25.2573 25.8976C25.332 25.9659 25.3737 26.0621 25.3724 26.1629C25.3716 26.2633 25.328 26.3587 25.2517 26.4253V26.4253Z" fill="white"/>
<path d="M26.1307 13.4325C26.0448 13.5075 25.9241 13.5395 25.8048 13.5074C25.6165 13.4565 25.5047 13.2616 25.5561 13.0729L26.2249 10.608C26.2757 10.4207 26.4696 10.3078 26.6594 10.3593C26.8477 10.4102 26.9595 10.605 26.9081 10.7938L26.2393 13.2586C26.2205 13.3286 26.1819 13.3878 26.1307 13.4325Z" fill="white"/>
<path d="M31.9245 16.8365C31.8733 16.8812 31.8095 16.9116 31.7376 16.9208L29.2052 17.2515C29.0117 17.2765 28.8332 17.1399 28.8081 16.9465C28.7831 16.752 28.9212 16.5741 29.1131 16.5494L31.6455 16.2187C31.839 16.1937 32.0175 16.3302 32.0426 16.5237C32.0584 16.6463 32.0104 16.7615 31.9245 16.8365V16.8365Z" fill="white"/>
<path d="M29.362 13.9021L27.7614 15.2998C27.6141 15.4284 27.3902 15.4133 27.2616 15.266C27.1331 15.1188 27.1482 14.8949 27.2955 14.7663L28.8961 13.3685C29.0433 13.2399 29.2672 13.2551 29.3958 13.4023C29.5244 13.5496 29.5092 13.7735 29.362 13.9021Z" fill="white"/>
<path d="M20.6333 22.8667L18.3667 20.0333L22.3333 12.1L29.7 20.0333L20.6333 22.8667Z" fill="white" stroke="white"/>
<path d="M20.6333 23.4333L17.8 20.6L15.5333 22.3L16.6667 24L17.2333 24.5667L18.3667 25.1333L20.6333 23.4333Z" fill="white"/>
<path d="M23.4667 27.4L20.0667 24.5667L20.0667 24L20.6333 23.4333L21.7667 23.4333L24.6 26.2667L23.4667 27.4Z" fill="white"/>
</g>
<defs>
<filter id="filter0_d" x="0" y="0" width="44" height="44" filterUnits="userSpaceOnUse" color-interpolation-filters="sRGB">
<feFlood flood-opacity="0" result="BackgroundImageFix"/>
<feColorMatrix in="SourceAlpha" type="matrix" values="0 0 0 0 0 0 0 0 0 0 0 0 0 0 0 0 0 0 127 0"/>
<feOffset dx="-1" dy="3"/>
<feGaussianBlur stdDeviation="3"/>
<feColorMatrix type="matrix" values="0 0 0 0 0.196078 0 0 0 0 0.0117647 0 0 0 0 0.564706 0 0 0 0.639 0"/>
<feBlend mode="normal" in2="BackgroundImageFix" result="effect1_dropShadow"/>
<feBlend mode="normal" in="SourceGraphic" in2="effect1_dropShadow" result="shape"/>
</filter>
<linearGradient id="paint0_linear" x1="33.848" y1="31.224" x2="11.384" y2="4.728" gradientUnits="userSpaceOnUse">
<stop stop-color="#9BADEB"/>
<stop offset="1" stop-color="#66E3FF"/>
</linearGradient>
<clipPath id="clip0">
<rect width="17" height="17" fill="white" transform="translate(11 18.1821) rotate(-41.1299)"/>
</clipPath>
</defs>
</svg>
