<svg width="44" height="44" viewBox="0 0 44 44" fill="none" xmlns="http://www.w3.org/2000/svg">
<g filter="url(#filter0_d)">
<path d="M29 3H17C11.4772 3 7 7.47715 7 13V25C7 30.5228 11.4772 35 17 35H29C34.5228 35 39 30.5228 39 25V13C39 7.47715 34.5228 3 29 3Z" fill="url(#paint0_linear)"/>
</g>
<path d="M16.7535 12.0012C16.753 12.0012 16.7524 12.0012 16.7519 12.0012C16.5817 12.0012 16.4216 12.0688 16.3007 12.1916C16.1784 12.3157 16.1111 12.481 16.1111 12.657V22.4898C16.1111 22.8504 16.4004 23.1444 16.756 23.1454C18.2553 23.149 20.7672 23.4671 22.5 25.3133V15.0229C22.5 14.9007 22.4694 14.7859 22.4115 14.6909C20.9892 12.3591 18.2561 12.0048 16.7535 12.0012Z" fill="white"/>
<path d="M29.889 22.4886V12.6557C29.889 12.4798 29.8216 12.3145 29.6994 12.1903C29.5785 12.0676 29.4182 12 29.2482 12C29.2476 12 29.2471 12 29.2466 12C27.744 12.0036 25.0109 12.3579 23.5886 14.6897C23.5307 14.7847 23.5001 14.8995 23.5001 15.0218V25.312C25.2329 23.4659 27.7448 23.1478 29.2441 23.1442C29.5997 23.1432 29.889 22.8492 29.889 22.4886Z" fill="white"/>
<path d="M31.356 14.2677H30.889V22.4886C30.889 23.4093 30.1522 24.16 29.2465 24.1622C27.9748 24.1653 25.8779 24.4185 24.3929 25.8494C26.9613 25.2092 29.6688 25.6253 31.2118 25.9833C31.4045 26.028 31.6036 25.9818 31.7579 25.8566C31.9118 25.7317 32 25.5449 32 25.3444V14.9233C32.0001 14.5618 31.7111 14.2677 31.356 14.2677Z" fill="white"/>
<path d="M15.111 22.4886V14.2677H14.644C14.289 14.2677 14 14.5618 14 14.9233V25.3442C14 25.5448 14.0882 25.7315 14.2421 25.8564C14.3963 25.9816 14.5952 26.0279 14.7882 25.9831C16.3312 25.6251 19.0388 25.209 21.6071 25.8492C20.1221 24.4184 18.0252 24.1653 16.7535 24.1622C15.8479 24.16 15.111 23.4093 15.111 22.4886Z" fill="white"/>
<defs>
<filter id="filter0_d" x="0" y="0" width="44" height="44" filterUnits="userSpaceOnUse" color-interpolation-filters="sRGB">
<feFlood flood-opacity="0" result="BackgroundImageFix"/>
<feColorMatrix in="SourceAlpha" type="matrix" values="0 0 0 0 0 0 0 0 0 0 0 0 0 0 0 0 0 0 127 0"/>
<feOffset dx="-1" dy="3"/>
<feGaussianBlur stdDeviation="3"/>
<feColorMatrix type="matrix" values="0 0 0 0 0.196078 0 0 0 0 0.0117647 0 0 0 0 0.564706 0 0 0 0.639 0"/>
<feBlend mode="normal" in2="BackgroundImageFix" result="effect1_dropShadow"/>
<feBlend mode="normal" in="SourceGraphic" in2="effect1_dropShadow" result="shape"/>
</filter>
<linearGradient id="paint0_linear" x1="33.848" y1="31.224" x2="11.384" y2="4.728" gradientUnits="userSpaceOnUse">
<stop stop-color="#F51B1B"/>
<stop offset="1" stop-color="#7C1BC8"/>
</linearGradient>
</defs>
</svg>
