<svg xmlns="http://www.w3.org/2000/svg" width="54" height="54" viewBox="0 0 54 54">
    <defs>
        <linearGradient id="ti5ya44sla" x1=".5" x2=".5" y1="1" gradientUnits="objectBoundingBox">
            <stop offset="0" stop-color="#ffe59a"/>
            <stop offset="1" stop-color="#ffffd5"/>
        </linearGradient>
        <linearGradient id="7ttn5b3fdb" x1=".5" x2=".5" y1="1" gradientUnits="objectBoundingBox">
            <stop offset="0" stop-color="#fd5900"/>
            <stop offset="1" stop-color="#ffde00"/>
        </linearGradient>
    </defs>
    <g>
        <g>
            <path fill="url(#ti5ya44sla)" d="M95.551 0h-27.97C63.46 0 61 4.14 61 11.074c0 6.9 2.3 10.909 6.328 11.07v1.586a1.583 1.583 0 0 0 2.29 1.415l5.994-3h11.909l5.994 3A1.584 1.584 0 0 0 95.8 23.73v-1.586c3.967-.168 6.328-4.278 6.328-11.07C102.133 4.037 99.735 0 95.551 0z" transform="translate(6.434) translate(-61)"/>
        </g>
    </g>
    <g>
        <g>
            <path fill="url(#7ttn5b3fdb)" d="M17.4 115.523a6.328 6.328 0 1 0-6.328 6.328 6.335 6.335 0 0 0 6.328-6.328zm-6.328 6.328C5.967 121.852 0 123.574 0 128.432v4.494a1.581 1.581 0 0 0 1.582 1.582h18.984a1.581 1.581 0 0 0 1.582-1.582v-4.494c0-4.858-5.966-6.58-11.074-6.58zm38.18-6.328a6.328 6.328 0 1 0-6.328 6.328 6.335 6.335 0 0 0 6.33-6.328zm-6.328 6.328c-5.108 0-11.074 1.723-11.074 6.58v4.494a1.581 1.581 0 0 0 1.582 1.582h18.986A1.581 1.581 0 0 0 54 132.926v-4.494c0-4.858-5.967-6.58-11.074-6.58zM20.672 90a1.582 1.582 0 1 0 1.582 1.582A1.582 1.582 0 0 0 20.672 90zM27 90a1.582 1.582 0 1 0 1.582 1.582A1.582 1.582 0 0 0 27 90zm6.328 3.164a1.582 1.582 0 1 0-1.582-1.582 1.582 1.582 0 0 0 1.582 1.582z" transform="translate(0 9.492) translate(0 -90)"/>
        </g>
    </g>
</svg>
