<svg xmlns="http://www.w3.org/2000/svg" width="30" height="30" viewBox="0 0 30 30">
    <g>
        <g transform="translate(-805 -1248) translate(568 79)">
            <circle cx="15" cy="15" r="15" fill="rgba(0,31,92,0.19)" transform="translate(237 1169)"/>
        </g>
        <g>
            <path fill="#fff" d="M4.061 14C1.366 14 0 12.8 0 10.437V5.009h13v5.428C13 12.8 11.632 14 8.933 14zm4.811-3.433a.608.608 0 0 0 .6.6.6.6 0 1 0 0-1.19h-.005a.6.6 0 0 0-.596.59zm-2.969 0a.6.6 0 1 0 .6-.6H6.5a.607.607 0 0 0-.6.6zm-2.794-.43a.587.587 0 0 0-.175.43.592.592 0 1 0 .175-.43zm5.77-2.111a.6.6 0 1 0 .595-.595.589.589 0 0 0-.596.596zm-2.976 0a.6.6 0 1 0 .6-.6H6.5a.607.607 0 0 0-.6.601zm-2.97 0a.6.6 0 0 0 1.015.423.583.583 0 0 0 .175-.429.592.592 0 0 0-.589-.595h-.006a.6.6 0 0 0-.596.602zm10.061-3.017H12v-.278a3.025 3.025 0 0 0-.3-1.446 1.885 1.885 0 0 0-.955-.845 3.353 3.353 0 0 0-.989-.246v.513a.52.52 0 0 1-1.04 0v-.55H4.3v-1h4.41v-.65A.52.52 0 0 1 9.75.5v.7a5.118 5.118 0 0 1 .995.2v-.008a.592.592 0 0 0 .062.023l.033.011.045.016c.062.019.118.042.179.066l.031.013a.859.859 0 0 1 .083.034l.026.012c.058.024.116.053.155.073s.062.033.09.049l.038.021a.665.665 0 0 1 .061.037l.04.025a3.056 3.056 0 0 1 .52.408l.005.009a2.079 2.079 0 0 1 .165.179v.009a3.632 3.632 0 0 1 .714 2.361v.27zM1 5.009H0v-.268a3.635 3.635 0 0 1 .716-2.36l.01-.009c.03-.036.061-.07.094-.106l.066-.073.014-.009a2.924 2.924 0 0 1 .515-.408l.037-.023c.023-.014.045-.028.068-.04l.123-.069.078-.037.079-.036.055-.023.055-.023c.083-.033.151-.059.215-.078a.367.367 0 0 1 .075-.028.217.217 0 0 1 .034-.013l.029-.01a5.11 5.11 0 0 1 .986-.195V.51a.52.52 0 0 1 1.04 0v2.2a.52.52 0 0 1-1.04 0V2.2a3.513 3.513 0 0 0-.994.246 2.19 2.19 0 0 0-1.249 2.292v.27z" transform="translate(-805 -1248) translate(813.122 1255.593) translate(.378 .407)"/>
        </g>
    </g>
</svg>
