<svg xmlns="http://www.w3.org/2000/svg" width="44" height="44" viewBox="0 0 44 44">
    <defs>
        <clipPath id="clip-path">
            <path id="Profile" d="M10.8 12H1.2A1.2 1.2 0 0 1 0 10.8v-.253a2.391 2.391 0 0 1 .889-1.865A7.947 7.947 0 0 1 6 7.2a7.947 7.947 0 0 1 5.111 1.482A2.391 2.391 0 0 1 12 10.547v.253a1.2 1.2 0 0 1-1.2 1.2zM6 6.6a3.72 3.72 0 0 1-2.039-.967A3.107 3.107 0 0 1 2.7 3.3a3.3 3.3 0 1 1 6.6 0 3.107 3.107 0 0 1-1.261 2.333A3.72 3.72 0 0 1 6 6.6z" class="cls-1"/>
        </clipPath>
        <filter id="Path_7430" width="44" height="44" x="0" y="0" filterUnits="userSpaceOnUse">
            <feOffset dy="3"/>
            <feGaussianBlur result="blur" stdDeviation="3"/>
            <feFlood flood-color="#81a7d8" flood-opacity=".345"/>
            <feComposite in2="blur" operator="in"/>
            <feComposite in="SourceGraphic"/>
        </filter>
        <style>
            .cls-1{fill:#001f5c}
        </style>
    </defs>
    <g id="edit" transform="translate(-1404 -325)">
        <g filter="url(#Path_7430)" transform="translate(1404 325)">
            <path id="Path_7430-2" fill="#fff" d="M13 0A13 13 0 1 1 0 13 13 13 0 0 1 13 0z" transform="translate(9 6)"/>
        </g>
        <g id="Group_5608" transform="translate(-271)">
            <g id="Profile-2" transform="translate(1690 338)">
                <path id="Surface" fill="none" d="M0 0H12V12H0z"/>
                <path id="Profile-3" d="M10.8 12H1.2A1.2 1.2 0 0 1 0 10.8v-.253a2.391 2.391 0 0 1 .889-1.865A7.947 7.947 0 0 1 6 7.2a7.947 7.947 0 0 1 5.111 1.482A2.391 2.391 0 0 1 12 10.547v.253a1.2 1.2 0 0 1-1.2 1.2zM6 6.6a3.72 3.72 0 0 1-2.039-.967A3.107 3.107 0 0 1 2.7 3.3a3.3 3.3 0 1 1 6.6 0 3.107 3.107 0 0 1-1.261 2.333A3.72 3.72 0 0 1 6 6.6z" class="cls-1"/>
            </g>
            <g id="Path_7429" fill="#001f5c" stroke="none">
                <path d="M12.24 19.78c-.255 0-.503-.103-.682-.283-.22-.221-.32-.539-.266-.848l.327-1.854c.033-.192.125-.37.266-.512l4.583-4.582c.434-.435.86-.526 1.142-.526.365 0 .714.148.983.417l.763.763c.299.298.463.694.463 1.117 0 .422-.164.819-.463 1.117l-4.581 4.582c-.14.14-.319.234-.516.268l-1.852.326c-.052.01-.11.015-.167.015z" transform="translate(1686.568 330.72)"/>
                <path fill="#fff" d="M12.24 19.28c.026 0 .054-.002.08-.007l1.854-.327c.094-.016.18-.061.247-.129l4.582-4.581c.421-.422.421-1.107 0-1.528l-.763-.763c-.155-.155-.376-.27-.63-.27-.242 0-.514.104-.788.38l-4.582 4.58c-.067.068-.112.154-.128.247l-.327 1.854c-.027.15.021.302.128.408.087.088.205.136.327.136m1.854-.79h.006-.006m-1.854 1.79c-.387 0-.765-.157-1.037-.431-.335-.335-.487-.817-.403-1.287l.327-1.853c.05-.292.19-.563.403-.777l4.585-4.585c.554-.556 1.119-.672 1.495-.672.499 0 .973.2 1.337.563l.763.763c.393.392.609.915.609 1.47 0 .557-.216 1.08-.609 1.472l-4.582 4.581c-.21.213-.482.355-.782.407l-1.85.326c-.084.015-.17.023-.256.023z" transform="translate(1686.568 330.72)"/>
            </g>
        </g>
    </g>
</svg>
