<svg width="44" height="44" viewBox="0 0 44 44" fill="none" xmlns="http://www.w3.org/2000/svg">
<g filter="url(#filter0_d)">
<path d="M29 3H17C11.4772 3 7 7.47715 7 13V25C7 30.5228 11.4772 35 17 35H29C34.5228 35 39 30.5228 39 25V13C39 7.47715 34.5228 3 29 3Z" fill="url(#paint0_linear)"/>
</g>
<path d="M25.1094 11.0547H24.4919C24.2741 10.4408 23.6875 10 23 10C22.3125 10 21.7259 10.4408 21.5081 11.0547H20.8906C20.0183 11.0547 19.3086 11.7644 19.3086 12.6367C19.3086 12.9282 19.5445 13.1641 19.8359 13.1641H26.1641C26.4555 13.1641 26.6914 12.9282 26.6914 12.6367C26.6914 11.7644 25.9817 11.0547 25.1094 11.0547Z" fill="white"/>
<path d="M28.2734 12.1094H27.6927C27.7275 12.2798 27.7461 12.4562 27.7461 12.6367C27.7461 13.5091 27.0364 14.2188 26.1641 14.2188H19.8359C18.9636 14.2188 18.2539 13.5091 18.2539 12.6367C18.2539 12.4562 18.2725 12.2798 18.3073 12.1094H17.7266C16.8542 12.1094 16.1445 12.819 16.1445 13.6914V26.418C16.1445 27.2903 16.8542 28 17.7266 28H28.2734C29.1458 28 29.8555 27.2903 29.8555 26.418V13.6914C29.8555 12.819 29.1458 12.1094 28.2734 12.1094ZM21.418 24.7656H19.3086C19.0171 24.7656 18.7812 24.5298 18.7812 24.2383C18.7812 23.9468 19.0171 23.7109 19.3086 23.7109H21.418C21.7094 23.7109 21.9453 23.9468 21.9453 24.2383C21.9453 24.5298 21.7094 24.7656 21.418 24.7656ZM21.418 21.0742H19.3086C19.0171 21.0742 18.7812 20.8384 18.7812 20.5469C18.7812 20.2554 19.0171 20.0195 19.3086 20.0195H21.418C21.7094 20.0195 21.9453 20.2554 21.9453 20.5469C21.9453 20.8384 21.7094 21.0742 21.418 21.0742ZM21.418 17.3828H19.3086C19.0171 17.3828 18.7812 17.1469 18.7812 16.8555C18.7812 16.564 19.0171 16.3281 19.3086 16.3281H21.418C21.7094 16.3281 21.9453 16.564 21.9453 16.8555C21.9453 17.1469 21.7094 17.3828 21.418 17.3828ZM26.5369 24.9201C26.7429 25.1261 26.7429 25.4599 26.5369 25.6658C26.4339 25.7688 26.299 25.8203 26.1641 25.8203C26.0292 25.8203 25.8942 25.7688 25.7912 25.6658L25.1094 24.984L24.4275 25.6658C24.3245 25.7688 24.1896 25.8203 24.0547 25.8203C23.9198 25.8203 23.7848 25.7688 23.6819 25.6658C23.4759 25.4599 23.4759 25.1261 23.6819 24.9201L24.3637 24.2383L23.6818 23.5564C23.4758 23.3504 23.4758 23.0167 23.6818 22.8107C23.8878 22.6047 24.2215 22.6047 24.4275 22.8107L25.1094 23.4926L25.7912 22.8107C25.9972 22.6047 26.3309 22.6047 26.5369 22.8107C26.7429 23.0167 26.7429 23.3504 26.5369 23.5564L25.8551 24.2383L26.5369 24.9201ZM27.0642 19.865L25.4822 21.4471C25.3792 21.5501 25.2443 21.6016 25.1094 21.6016C24.9745 21.6016 24.8395 21.5501 24.7365 21.4471L23.6819 20.3924C23.4759 20.1864 23.4759 19.8526 23.6819 19.6467C23.8878 19.4407 24.2216 19.4407 24.4276 19.6467L25.1094 20.3285L26.3186 19.1193C26.5246 18.9133 26.8583 18.9133 27.0643 19.1193C27.2703 19.3253 27.2703 19.659 27.0642 19.865ZM27.0642 16.701L25.4822 18.283C25.3792 18.386 25.2443 18.4375 25.1094 18.4375C24.9745 18.4375 24.8395 18.386 24.7365 18.283L23.6819 17.2283C23.4759 17.0223 23.4759 16.6886 23.6819 16.4826C23.8878 16.2766 24.2216 16.2766 24.4276 16.4826L25.1094 17.1645L26.3186 15.9553C26.5246 15.7493 26.8583 15.7493 27.0643 15.9553C27.2703 16.1612 27.2703 16.495 27.0642 16.701Z" fill="white"/>
<defs>
<filter id="filter0_d" x="0" y="0" width="44" height="44" filterUnits="userSpaceOnUse" color-interpolation-filters="sRGB">
<feFlood flood-opacity="0" result="BackgroundImageFix"/>
<feColorMatrix in="SourceAlpha" type="matrix" values="0 0 0 0 0 0 0 0 0 0 0 0 0 0 0 0 0 0 127 0"/>
<feOffset dx="-1" dy="3"/>
<feGaussianBlur stdDeviation="3"/>
<feColorMatrix type="matrix" values="0 0 0 0 0.196078 0 0 0 0 0.0117647 0 0 0 0 0.564706 0 0 0 0.639 0"/>
<feBlend mode="normal" in2="BackgroundImageFix" result="effect1_dropShadow"/>
<feBlend mode="normal" in="SourceGraphic" in2="effect1_dropShadow" result="shape"/>
</filter>
<linearGradient id="paint0_linear" x1="33.848" y1="31.224" x2="11.384" y2="4.728" gradientUnits="userSpaceOnUse">
<stop stop-color="#F58D76"/>
<stop offset="1" stop-color="#FF6666"/>
</linearGradient>
</defs>
</svg>
