<svg xmlns="http://www.w3.org/2000/svg" width="84.706" height="60" viewBox="0 0 84.706 60">
    <g>
        <path fill="#ffa000" d="M104.432 74.667H51.49a8.823 8.823 0 0 0-8.823 8.823v3.53a1.765 1.765 0 0 0 1.765 1.765h15.106a1.789 1.789 0 0 1 1.676 1.186l1.924 5.82a5.333 5.333 0 0 0 5.012 3.582h43.34a1.765 1.765 0 0 0 1.765-1.765V83.49a8.824 8.824 0 0 0-8.823-8.823z" transform="translate(0 -74.667) translate(-35.608)"/>
        <path fill="#ffc107" d="M79.412 149.255H32.541a1.814 1.814 0 0 1-1.676-1.186l-1.924-5.82a5.336 5.336 0 0 0-5.012-3.582H5.294A5.294 5.294 0 0 0 0 143.961 50.031 50.031 0 0 0 2.086 158.3l7.059 23.478a8.823 8.823 0 0 0 8.467 6.3h49.835a8.823 8.823 0 0 0 8.291-5.735l7.624-20.337a21.4 21.4 0 0 0 1.345-7.458 5.294 5.294 0 0 0-5.295-5.293z" transform="translate(0 -74.667) translate(0 -53.412)"/>
    </g>
</svg>
