<svg xmlns="http://www.w3.org/2000/svg" width="54" height="54" viewBox="0 0 54 54">
    <defs>
        <linearGradient id="linear-gradient" x1=".5" x2=".5" y1="1" gradientUnits="objectBoundingBox">
            <stop offset="0" stop-color="#a93aff"/>
            <stop offset="1" stop-color="#ff81ff"/>
        </linearGradient>
        <style>
            .cls-1{fill:url(#linear-gradient)}
        </style>
    </defs>
    <g id="Group_5704" transform="translate(-648 -486)">
        <path id="Path_7893" d="M33.328 6.328A6.328 6.328 0 1 0 27 12.656a6.335 6.335 0 0 0 6.328-6.328zm-15.82 18.985h18.984a1.581 1.581 0 0 0 1.582-1.582v-4.495c0-4.857-5.967-6.58-11.074-6.58s-11.074 1.723-11.074 6.58v4.494a1.581 1.581 0 0 0 1.582 1.583zm-.105 9.7a6.328 6.328 0 1 0-6.328 6.328 6.335 6.335 0 0 0 6.325-6.325zm-6.328 6.328C5.967 41.344 0 43.066 0 47.924v4.494A1.581 1.581 0 0 0 1.582 54h18.984a1.581 1.581 0 0 0 1.582-1.582v-4.494c0-4.858-5.966-6.58-11.074-6.58zm38.18-6.328a6.328 6.328 0 1 0-6.328 6.328 6.335 6.335 0 0 0 6.327-6.325zm-6.328 6.328c-5.108 0-11.074 1.723-11.074 6.58v4.494A1.581 1.581 0 0 0 33.434 54h18.984A1.581 1.581 0 0 0 54 52.418v-4.494c0-4.858-5.967-6.58-11.074-6.58z" class="cls-1" transform="translate(648 486)"/>
        <path id="Path_7894" d="M208.172 279.327l-4.116-2.744v-3.972a1.611 1.611 0 0 0-3.223 0v3.972l-4.116 2.744a1.611 1.611 0 0 0 1.788 2.681l3.94-2.627 3.94 2.627a1.611 1.611 0 1 0 1.788-2.681z" class="cls-1" transform="translate(472.556 243.445)"/>
    </g>
</svg>
