<svg xmlns="http://www.w3.org/2000/svg" width="186" height="140" viewBox="0 0 186 140">
    <defs>
        <style>
            .cls-1{fill:rgba(92,138,255,.25)}.cls-3{fill:#3b1b6a}.cls-10,.cls-14,.cls-8{fill-rule:evenodd}.cls-5{fill:rgba(0,0,0,.25);mix-blend-mode:overlay;isolation:isolate}.cls-7{fill:rgba(255,255,255,.3)}.cls-8{fill:#ff9490}.cls-10{fill:#ffd0c2}.cls-12{fill:#381f67}.cls-13{fill:#281747}.cls-14{fill:#5dbbff}
        </style>
    </defs>
    <g id="illustration_1" transform="translate(-90.766 -274.795)">
        <g id="Group_35125" transform="translate(90.766 274.795)">
            <g id="No-Message">
                <g id="Group_4879">
                    <g id="Background" transform="translate(0 7.069)">
                        <g id="Element" transform="translate(118.922)">
                            <path id="Shape" d="M0 4.114h5.146a.163.163 0 0 0 .154-.227L3.612 0z" class="cls-1" transform="rotate(90 15.531 18.766)"/>
                            <path id="Shape-2" d="M184.585 14.475l20.88-3.27" class="cls-1" transform="translate(-154.425 -11.203)"/>
                            <path id="Shape-3" d="M2.095 181.808c.446.429.271.173-.236.968q-.644 1.016-1.208 2.079s-.031.144-.326.176l-.225-.117-.077-.24.037-.123q.556-1.05 1.192-2.057.147-.233.3-.463a.78.78 0 0 1 .425-.27zm3.783-4.771l.184.175c.057.254-.2.5-.4.707q-.842.892-1.621 1.84s-.321.366-.613.026l-.029-.25.06-.114c.64-.788 1.319-1.546 2.025-2.275l.264-.131zm4.676-3.985l.153.2-.037.249a13.281 13.281 0 0 1-1.5 1.181l-1.081.873c-.439.057-.424-.206-.424-.206l.017-.251a5.315 5.315 0 0 1 .839-.742q.777-.637 1.586-1.234l.319-.115zm5.122-3.3c.263.136.238.281.238.281l-.073.241a12.856 12.856 0 0 1-1.684.969q-.519.306-1.03.625l-.277.06-.21-.144a.377.377 0 0 1 .008-.365l.094-.089q1.207-.758 2.464-1.436a.517.517 0 0 1 .469-.138zm5.651-2.506c.241.17.2.31.2.31-.067.284-.216.3-.216.3q-1.435.532-2.827 1.158s-.115.095-.367-.059c0 0-.133-.068-.085-.356a13.894 13.894 0 0 1 1.469-.743q.535-.222 1.077-.429l.317-.12a.719.719 0 0 1 .431-.057zm5.95-1.695l.151.2c.029.638-1.151.6-2.125.849-.451.114-1.1.3-1.1.3l-.254-.027a.38.38 0 0 1-.172-.324 1.031 1.031 0 0 1 .558-.37c.89-.247 1.792-.448 2.684-.663a.655.655 0 0 1 .258.039zM33.233 164c.226.189.169.325.169.325-.091.278-.241.278-.241.278q-1.291.361-2.587.7a2.7 2.7 0 0 1-.525.111l-.221-.127s-.119-.089-.023-.365l.2-.152q1.477-.384 2.948-.792a.647.647 0 0 1 .28.022zm5.888-1.782l.167.19-.019.251-.194.165q-1.441.47-2.893.905s-.015.08-.31-.008c0 0-.266-.028-.138-.445l.2-.16.639-.193q1.137-.349 2.269-.715a.645.645 0 0 1 .278.01zm5.787-2.068l.178.181v.252l-.184.175q-1.394.54-2.8 1.041l-.349.021-.172-.186.012-.252.189-.169.6-.216q.994-.36 1.98-.737l.422-.136zm5.629-2.44c.256.147.224.291.224.291l-.084.238s-1.748.848-2.835 1.315c-.568.245-.553-.259-.553-.259.053-.287.2-.307.2-.307l.375-.162q1.19-.519 2.357-1.073a.664.664 0 0 1 .316-.043zm5.365-2.942l.209.145.043.248c-.124.274-.422.375-.676.529q-1.009.609-2.049 1.172a.4.4 0 0 1-.593-.2l.071-.242a24.648 24.648 0 0 1 2.742-1.612.655.655 0 0 1 .251-.04zm5-3.613l.172.187c.043.289-.09.355-.09.355-.749.667-1.528 1.293-2.344 1.893-.309.227-.439.068-.439.068s-.144-.039-.16-.33c0 0 .871-.754 1.614-1.365.369-.3.88-.753.88-.753l.241-.085zm4.006-4.6c.444.4.206.313-.087.766a19.551 19.551 0 0 1-1.646 2.172s-.033.066-.235.121l-.243-.079-.115-.225s.665-.9 1.2-1.648c.314-.436.667-1 .667-1s.086-.243.461-.108zm2.011-5.693c.228.187.172.324.172.324a13.239 13.239 0 0 1-.708 3.025l-.173.19c-.287.071-.367-.054-.367-.054l-.109-.228a27.227 27.227 0 0 0 .692-2.986s-.021-.067.125-.238l.246-.071zm-.753-5.987l.17.189a15.061 15.061 0 0 1 .722 3.007l-.067.252c-.224.191-.353.115-.353.115-.265-.131-.243-.277-.243-.277l-.031-.224a14.584 14.584 0 0 0-.651-2.628s-.065-.022 0-.282l.192-.167a.658.658 0 0 1 .263.015zm-3.045-5.235a9.277 9.277 0 0 1 1.9 2.586l.045.271-.156.2-.254.032c-.219-.107-.31-.338-.438-.545a16.339 16.339 0 0 0-1.5-2.037s-.124-.082-.043-.363l.195-.163a.661.661 0 0 1 .253.018zm-4.75-3.81a17.83 17.83 0 0 1 2.567 1.7l.157.25c-.028.29-.173.323-.173.323-.283.086-.37-.034-.37-.034l-.206-.162a17.444 17.444 0 0 0-2.287-1.5s-.072-.014-.171-.2c0 0-.078-.125.113-.348l.246-.07zm-5.735-2.354q1.356.5 2.706 1.021l.179.069c.25.157.212.3.212.3l-.093.234-.234.1s-1.589-.583-2.829-1.044l-.176-.065c-.252-.154-.216-.3-.216-.3l.09-.236c.125-.083.053-.131.364-.08zm-5.811-2.068q1.442.494 2.878 1l.223.182.012.252c-.153.25-.3.217-.3.217s-1.424-.478-2.6-.883l-.547-.214-.111-.227c.041-.289.188-.315.188-.315a.659.659 0 0 1 .26-.013zm-5.854-1.94q1.355.435 2.706.882l.338.138s.135.064.1.353l-.168.19-.255.017q-1.418-.469-2.841-.927l-.279-.191-.02-.251c.148-.265.266-.231.422-.213zm-5.882-1.849l2.565.8.279.088a.38.38 0 0 1 .253.557c-.232.182-.357.1-.357.1l-2.581-.8-.474-.173-.119-.223c.032-.29.178-.321.178-.321a.66.66 0 0 1 .259-.029zM29.2 115.81l2.518.772.427.131c.26.139.234.284.234.284-.031.29-.177.321-.177.321l-.255.023-2.485-.761-.462-.142c-.26-.139-.233-.284-.233-.284l.076-.24c.118-.094.044-.137.357-.104zm-5.873-1.845q1.435.466 2.874.915a.374.374 0 0 1 .213.544l-.227.116-.13-.014q-1.444-.451-2.883-.917l-.25-.183c-.118-.42.148-.442.148-.442a.661.661 0 0 1 .255-.019zm-5.807-2.008l.462.172q1.145.421 2.3.818l.324.213.014.252-.17.188a.448.448 0 0 1-.255.014q-1.428-.492-2.849-1.019l-.245-.2c-.066-.284.062-.361.062-.361l.234-.1zm-5.63-2.4l.354.173c.8.386 1.61.748 2.427 1.094l.178.18v.252l-.183.176h-.256c-.944-.4-1.878-.82-2.794-1.272 0 0-.163.018-.207-.33l.115-.225.243-.079zm-5.25-3.267a14.815 14.815 0 0 1 1.36 1c.378.264.765.516 1.157.759l.215.246a.378.378 0 0 1-.132.342.548.548 0 0 1-.511-.076q-.251-.156-.5-.318a22.333 22.333 0 0 1-1.9-1.383s-.067-.031-.126-.23l.076-.24.227-.117zm-3.54-4.417a12.092 12.092 0 0 0 1.5 2.352s.069 0 .094.267c0 0 .025.145-.238.281a.547.547 0 0 1-.468-.249q-.159-.2-.31-.4a12.387 12.387 0 0 1-1.247-2.1l-.009-.253.175-.184.256-.008.187.172zm-1.042-6.225l.21.144.044.248-.032.146a8.208 8.208 0 0 0-.093 2.714s.069.025-.06.284c0 0-.053.262-.468.063a4.406 4.406 0 0 1-.2-1.031 8.747 8.747 0 0 1 .195-2.274l.157-.253a.657.657 0 0 1 .247-.041zm3.072-5.2c.627.387.191.452-.182.861a13.326 13.326 0 0 0-1.51 2s.006.156-.345.175l-.22-.128-.064-.244.043-.112A14.024 14.024 0 0 1 4.7 90.611l.3-.179zM9.9 86.67c.713.314.2.54-.109.732-.781.492-1.546 1.016-2.28 1.579 0 0-.045.058-.254.074l-.223-.123s-.167-.122-.029-.364c.116-.2.384-.326.6-.488.592-.433 1.2-.843 1.822-1.232l.216-.134a.533.533 0 0 1 .257-.044zm5.5-2.815a.383.383 0 0 1 .215.3 2.485 2.485 0 0 1-.853.6q-1.042.478-2.063 1s0 .074-.295.043l-.2-.161s-.1-.107.039-.363l.1-.081c.889-.459 1.794-.887 2.709-1.293l.213-.067zm5.776-2.194l.169.189c.039.289-.1.353-.1.353s-.8.292-1.464.529q-.771.274-1.536.566L18 83.294l-.177-.182.006-.252.185-.174q1.067-.408 2.149-.782l.387-.133.377-.127a.514.514 0 0 1 .251.017z" class="cls-1" transform="translate(-.021 -70.125)"/>
                        </g>
                        <path id="Shape-4" d="M44.45 261.05c.537.251.281.265.161.719a21.059 21.059 0 0 1-.866 2.649s.006.069-.189.2H43.3l-.18-.18a2.576 2.576 0 0 1 .131-.581 24.256 24.256 0 0 0 .788-2.54s-.022-.065.158-.226a.655.655 0 0 1 .253-.041zm.912-6.08c.242.169.2.311.2.311q-.034 1.2-.172 2.39-.028.24-.06.48a.745.745 0 0 1-.162.456s-.137.227-.468-.064c0 0 .062-1.13.131-2.063q.043-.585.061-1.172s-.067-.036.106-.277l.239-.09zm-.558-6.1a1.655 1.655 0 0 1 .294.873 23.725 23.725 0 0 1 .355 2.378.388.388 0 0 1-.3.4l-.245-.074s-.19-.992-.329-1.824q-.118-.7-.281-1.4s-.072-.13.131-.343l.249-.057zm-2.35-5.765c.265.131.381.465.537.756a21.5 21.5 0 0 1 1.021 2.2s.053.044 0 .273l-.185.175s-.242.265-.578-.549a21.1 21.1 0 0 0-1.175-2.377l-.032-.251.157-.2a.657.657 0 0 1 .256-.032zm-25.147.791a11.34 11.34 0 0 0 2.92-.2l.26.045.145.209-.047.249-.211.143a11.813 11.813 0 0 1-3.18.214l-.244-.115-.081-.24c.117-.422.357-.306.357-.306zm-5.707-2.189c.237.14.481.377.717.542a8.586 8.586 0 0 0 1.962 1.015s.149.013.217.3l-.09.237a.538.538 0 0 1-.513.027 8.776 8.776 0 0 1-2.623-1.556l-.117-.234.086-.238c.123-.092.05-.138.361-.093zm14.275-.856c.243.168.2.31.2.31l-.1.232a11.834 11.834 0 0 1-2.586 1.864.42.42 0 0 1-.256.024l-.2-.162s-.219-.158.139-.447a13.94 13.94 0 0 0 2.438-1.758l.238-.092zm12.791-2.586a10.977 10.977 0 0 1 2.212 2.383l.079.258c-.093.278-.243.278-.243.278l-.254-.031a13.005 13.005 0 0 1-1.085-1.246q-.515-.566-1.067-1.1s-.131-.071-.077-.359c.002 0 .045-.256.437-.184zM9.8 236.087l.161.2a21.2 21.2 0 0 0 .239 3.083s.071.13-.133.343c0 0-.414.268-.537-.273a9.594 9.594 0 0 1-.234-2.976c.037-.408.249-.4.249-.4a.653.653 0 0 1 .255.023zm19.408-.394c.49.307.261.265.073.724q-.115.281-.241.558A15.81 15.81 0 0 1 28 238.9l-.229.178-.252-.042-.148-.206a1.32 1.32 0 0 1 .288-.649 16.115 16.115 0 0 0 1.1-2.267l.19-.217a.655.655 0 0 1 .251-.004zm4.579-1.158c.869.527 1.709 1.089 2.526 1.7a.355.355 0 0 1 .139.52l-.221.127s-.875-.541-1.577-1.012q-.6-.4-1.216-.775l-.15-.2s-.155-.216.247-.4a.656.656 0 0 1 .249.04zm-20.736-3.412c.266.13.245.276.245.276-.031.461-.093.28-.42.483a6.589 6.589 0 0 0-1.913 1.792l-.222.153c-.3 0-.342-.142-.342-.142-.112-.271 0-.367 0-.367a7.3 7.3 0 0 1 2.395-2.16.652.652 0 0 1 .254-.035zm17.579-1.41c.228.187.173.325.173.325a26.926 26.926 0 0 1-.414 2.689l.279.132c.7.336.582.356.511.617l-.193.166-.856-.3-.225.033-.209-.145-.042-.108q-.844-.381-1.7-.726l-.224-.194c-.09-.428.177-.433.177-.433h.256q.811.323 1.608.68c.161-.808.282-1.627.37-2.449l.124-.245.245-.072zm-8.485.253a21.563 21.563 0 0 1 3.045.724s.15-.041.246.293l-.079.241-.228.115s-.988-.287-1.843-.48q-.621-.14-1.249-.241s-.144.062-.291-.253l.041-.25.207-.148a.964.964 0 0 1 .148 0zm-3.051-.227l.181.179v.253l-.181.179c-.6.117-1.26.046-1.9.117a12.315 12.315 0 0 0-1.237.2l-.265-.041c-.214-.2-.15-.336-.15-.336.107-.273.257-.266.257-.266a14.957 14.957 0 0 1 3.167-.313zm11.589-6.209c.324.189.226.319.232.442q.015.263.027.527.052 1.176.041 2.352l-.1.311-.238.094-.235-.1-.095-.235c.013-1.016-.015-2.039-.074-3.06 0 0-.048-.14.188-.317a.66.66 0 0 1 .251-.013zm-.755-6.135c.27.121.254.268.254.268.167.989.314 1.982.435 2.977.014.119.081.217-.158.419l-.254.03s-.22-.109-.275-.562q-.174-1.382-.407-2.755l.057-.247.217-.134zm-1.184-6c.249.224.254.611.341.971q.246 1.017.468 2.04c.112.517.1.42-.093.55-.381.259-.465-.085-.465-.085s-.236-.985-.451-1.895c-.119-.5-.3-1.218-.3-1.218l.038-.25.206-.15a.656.656 0 0 1 .253.042zm-1.7-5.949l.164.194c.3.96.591 1.927.869 2.9 0 0 .09.018-.01.322l-.2.156s-.128.077-.353-.114c0 0-.509-1.682-.94-3.055l.02-.26c.254-.321.3-.181.443-.139zm-2.219-5.79a.438.438 0 0 1 .184.175q.1.219.192.438.514 1.188.974 2.4l.006.291-.187.173c-.293.047-.361-.084-.361-.084s-.374-.913-.688-1.673q-.253-.611-.52-1.216l-.032-.314c.217-.346.277-.212.425-.186zm-2.834-5.521c.3.149.425.544.613.88q.512.917.991 1.852a.874.874 0 0 1 .115.281l-.08.24-.228.114s-.141.05-.323-.181q-.69-1.355-1.445-2.67s-.161-.069.006-.4l.222-.125zm-3.263-5.161a7.861 7.861 0 0 1 1.893 2.781l-.055.247-.215.136a.35.35 0 0 1-.25-.054 2.742 2.742 0 0 1-.5-.719q-.628-.946-1.287-1.87l-.093-.3.136-.214c.13-.053.07-.114.364-.003zm-3.874-4.871a4.937 4.937 0 0 1 .7.777q.709.836 1.389 1.694s.056.052.071.247c0 0 .022.146-.242.278l-.254-.031s-.659-.792-1.245-1.49q-.4-.478-.811-.949s-.065-.025-.094-.255c-.004.005-.058-.413.479-.266zm-4.321-4.488a5.681 5.681 0 0 1 .867.8q.729.714 1.436 1.45l.11.256-.1.231-.239.09-.234-.1-.255-.264q-.93-.957-1.9-1.877l-.14-.267c.051-.289.2-.31.2-.31a.652.652 0 0 1 .249-.004zm-4.743-4.052a5.192 5.192 0 0 1 .862.643q.835.666 1.645 1.361s.068-.027.145.253c0 0 .05.139-.184.319a.391.391 0 0 1-.4-.073l-.234-.2q-1.019-.863-2.08-1.686s-.077.035-.175-.258c0 0-.058-.136.167-.328a.658.658 0 0 1 .248-.026zm-5.071-3.446c.9.52 1.779 1.081 2.64 1.664 0 0 .07.02.15.22 0 0 .143.223-.268.385l-.25-.053q-1.268-.865-2.6-1.642s-.072-.026-.16-.2c0 0-.076-.128.121-.347l.247-.064z" class="cls-1" transform="translate(-.214 -146.266)"/>
                    </g>
                    <g id="Character" transform="translate(36.278)">
                        <path id="Shape-5" fill="#dcd6e3" d="M.014.466C-.151-.085 1.2-.02 1.926.037 2.281.08 2.38.687 1.7.7Q1.257.708.813.7C.473.7.107.737.014.466z" transform="rotate(110.253 2.698 94.166)"/>
                        <path id="Shape-6" d="M11.929.512c.231.242.139.628-.557.523a38.841 38.841 0 0 0-10.991.042S.08 1.062.014.845C-.149.306 1.138.3 2.168.2a38.153 38.153 0 0 1 9.49.211.472.472 0 0 1 .271.101z" class="cls-3" transform="rotate(-38.19 91.219 -10.436)"/>
                        <path id="Shape-7" d="M566.721 560.746c.276.039.362.319.152.678-1.884 3.183-4.7 6.678-8 6.016-.464-.093-.51-.786.1-.655 1.86.382 3.639-1.07 4.81-2.3q.392-.411.752-.851a20.363 20.363 0 0 0 1.867-2.726.369.369 0 0 1 .319-.162z" class="cls-3" transform="translate(-467.364 -469.597)"/>
                        <path id="Shape-8" fill="#fece77" fill-rule="evenodd" d="M201.321 330.058s-.566.17-1.564.582c-.709.293-1.631.707-2.725 1.267l-.218.112c-.172.088-.348.181-.526.278-.2.106-.4.216-.6.33s-.4.225-.606.344c-1.337.769-2.585 1.593-3.628 2.331l-.038.026c-.628.441-1.181.848-1.633 1.194-.216.163-.41.313-.577.445-.484.379-.758.608-.758.608-1.081-2.172-2.438-5.18-2.531-5.332 0 .011-.02.665-.009.694l-1.444 28.57H146.68l-.056-1.075-1.466-28.028s-.82 2.258-2.335 5.352c-.007 0-.011-.011-.018-.015-.181-.148-.394-.313-.64-.494-.147-.106-.3-.218-.466-.335-.042-.033-.089-.064-.134-.1-.062-.042-.125-.086-.185-.13-.631-.443-1.366-.939-2.162-1.445-.735-.467-1.52-.938-2.322-1.384-.361-.2-.724-.392-1.09-.577l-.272-.137c-.272-.134-.544-.264-.816-.386-.036-.018-.071-.033-.107-.048s-.071-.033-.107-.048c-.234-.1-.579-.251-.978-.423-.459-.2-.985-.423-1.489-.637l-.279-.119c-.943-.4-1.738-.74-1.738-.74l.218-.4c.265-.48.762-1.373 1.437-2.536l.341-.588c.441-.749.943-1.591 1.493-2.494.308-.507.633-1.033.972-1.575a83.106 83.106 0 0 1 8.927-12.134 15.911 15.911 0 0 1 10.921-5.008 20.2 20.2 0 0 1 4.461.245q1.885.311 3.79.456c1.268.1 2.543.143 3.817.143a43.682 43.682 0 0 0 5.174-.306 31.459 31.459 0 0 1 4.448-.214c.163 0 .325.009.492.015 4.044.161 9.029 1.212 12.514 4.83a66.455 66.455 0 0 1 9 12.61c2.05 3.588 3.296 6.276 3.296 6.276z" transform="translate(-108.889 -256.413)"/>
                        <path id="Shape-9" d="M152.668 302.6a21.231 21.231 0 0 1 2.322.138 60.188 60.188 0 0 0 13.9.411c6.478-.718 13.407.267 17.957 5.091 5.115 5.422 8.993 12.077 12.125 18.731l.066.259-.048.227-.139.188-.2.115-.1.03a29.087 29.087 0 0 0-4.092 1.775s-.833.431-1.565.844a47.4 47.4 0 0 0-6.933 4.767.589.589 0 0 1-.909-.283c-.445-.9-.877-1.811-1.305-2.722l-.1-.209-.11-.236-1.364 26.986a.657.657 0 0 1-.556.523h-37.781a.657.657 0 0 1-.556-.523l-.056-1.075-1.335-25.525q-.6 1.4-1.267 2.77l-.141.289c-.044.067-.1.125-.15.188l-.217.107-.242.006-.241-.11c-.354-.3-.733-.562-1.108-.833a41.41 41.41 0 0 0-6.884-4.1c-1.547-.708-3.032-1.308-4.54-1.949l-.326-.189-.119-.194-.03-.224s.34-.724.68-1.331c.427-.762.863-1.519 1.3-2.274l.089-.153c3.289-5.575 6.734-11.148 11.092-15.9a17.43 17.43 0 0 1 12.565-5.616l.318.001zm29.844 26.847l.136-.387a.57.57 0 0 1 .9.089 2.062 2.062 0 0 1 .111.221c.716 1.5 1.4 3.018 2.128 4.514 0 0 .83-.652 1.562-1.188a49.4 49.4 0 0 1 6.522-4.071s1.213-.618 2.164-1.036c.55-.242 1.105-.469 1.67-.675-3.159-6.524-6.818-12.768-11.68-17.922-4.415-4.68-11.834-5.291-17.884-4.65a48.865 48.865 0 0 1-12.51-.405 16.64 16.64 0 0 0-14.149 4.113 58.861 58.861 0 0 0-7.882 10.25c-1.988 3.036-3.858 6.15-5.6 9.289l-.036.065 1.837.783a49.986 49.986 0 0 1 8.942 4.9c.391.273.914.653.914.653l.124.092c.728-1.526 1.416-3.073 2-4.655 0 0 .194-.373.506-.387.214-.01.436-.053.583.522l1.466 28.028.029.553h36.72l1.415-28.009a5.611 5.611 0 0 1 .012-.683z" class="cls-3" transform="translate(-106.045 -253.594)"/>
                        <path id="Shape-10" d="M419.437 332.106l1.081 2.145a30.05 30.05 0 0 0-2.9 1.276s-.9-1.9-2.418-5.055-6.41-11.963-11.3-15.339a23.85 23.85 0 0 0-10.943-3.675 27.286 27.286 0 0 1 6.929.337 15.84 15.84 0 0 1 9.485 5.091 72.019 72.019 0 0 1 8.333 12.029l1.7 3.129z" class="cls-5" transform="translate(-328.855 -260.857)"/>
                        <path id="Shape-11" d="M431.97 481.458l4.576-.038.294-6.01.522-10.191.607-12.367-1.2-2.86s-2.291 14.983-2.86 19.287c-.551 4.169-1.934 12.179-1.934 12.179" class="cls-5" transform="translate(-361.494 -376.937)"/>
                        <path id="Shape-12" fill="#ffce93" fill-rule="evenodd" d="M294.672 312.224a18.246 18.246 0 0 1-9.267-.058c-5.012-1.15-6.633-4.574-6.622-6.158a20.2 20.2 0 0 1 4.461.245q1.885.311 3.791.456t3.817.143a43.682 43.682 0 0 0 5.174-.306 31.462 31.462 0 0 1 4.448-.214c.162 0 .325.009.492.015a7.126 7.126 0 0 1-2.633 4.083q-.236.17-.477.328" transform="translate(-233.34 -256.309)"/>
                        <path id="Shape-13" d="M277.126 302.6a21.24 21.24 0 0 1 2.322.137 60.159 60.159 0 0 0 13.9.411 32.56 32.56 0 0 1 4.743-.178.69.69 0 0 1 .372.109c.533.387.084 1.386-.391 2.289a8.03 8.03 0 0 1-2.617 2.942.608.608 0 0 1-.915-.1c-.287-.493.5-.913.947-1.3a6.707 6.707 0 0 0 1.933-2.816 1.663 1.663 0 0 0-.273-.044q-1.366-.009-2.728.1a57.6 57.6 0 0 1-13.861-.141 21.981 21.981 0 0 0-3.958-.3h-.037c.565 2.71 3.509 4.524 6.441 5.166a17.71 17.71 0 0 0 8.549.035l.2-.052a.473.473 0 0 1 .506.177c.281.311.084.8-.462.953a18.671 18.671 0 0 1-10.288-.36c-2.822-.871-5.5-2.9-6.046-5.761a3.8 3.8 0 0 1-.062-.5c-.022-.406.144-.716.767-.747q.475-.02.958-.02z" class="cls-3" transform="translate(-230.502 -253.489)"/>
                        <path id="Shape-14" d="M490.519 433.925s-8.992 2.418-12.082 6.59l-.614-1.313-.083-.171-.559-1.209c3.684-4.348 12.142-6.205 12.142-6.205l.306.574.429.816z" class="cls-7" transform="translate(-399.318 -361.498)"/>
                        <path id="Shape-15" d="M139.464 435.674l.623-1.06s7.847 1.668 11.531 6.016l-.559 1.343-.021.054-.614 1.374c-3.09-4.172-11.687-6.453-11.687-6.453l.656-1.153z" class="cls-7" transform="translate(-116.181 -364.007)"/>
                        <path id="Shape-16" d="M0 0h3.818" class="cls-8" transform="rotate(-112.616 63.803 12.268)"/>
                        <path id="Shape-17" d="M4.842.778a.58.58 0 0 1-.508.324H.516C-.053 1.088-.282.02.516 0h3.818a.48.48 0 0 1 .216.043.508.508 0 0 1 .292.735z" class="cls-3" transform="rotate(-112.616 63.88 12.716)"/>
                        <path id="Shape-18" d="M0 0h3.871" class="cls-8" transform="rotate(-68.78 73.816 11.716)"/>
                        <path id="Shape-19" d="M4.887.386a.408.408 0 0 1-.02.382.533.533 0 0 1-.512.334H.485C-.1 1.087-.224.018.485 0h3.871a.52.52 0 0 1 .531.386z" class="cls-3" transform="rotate(-68.78 73.663 12.346)"/>
                        <path id="Shape-20" fill="#96a5ff" fill-rule="evenodd" d="M188.633 45.631l-.013.147a11.245 11.245 0 0 0 7.325 11.722q.706.245 1.476.494a44.8 44.8 0 0 0 6.966 1.766 68.209 68.209 0 0 0 10.5.725 69.089 69.089 0 0 0 10.2-.679 35.439 35.439 0 0 0 6.967-1.708c8.626-3.18 12.577-9.9 7.833-22.215q-.246-.636-.506-1.244a36.053 36.053 0 0 0-3.869-6.955 23.96 23.96 0 0 0-8.843-7.694 20.654 20.654 0 0 0-10.252-2.111 25.638 25.638 0 0 1-3.107 0 20.691 20.691 0 0 0-10.486 2.23 24.175 24.175 0 0 0-8.8 7.847s-4.385 5.633-5.391 17.675z" transform="translate(-157.871 -15.083)"/>
                        <path id="Shape-21" d="M214.785 14.471a22.609 22.609 0 0 1 16.476 7.694 33.791 33.791 0 0 1 8.3 18.255 14.147 14.147 0 0 1-2.423 10.115c-2.66 3.491-7.05 5.337-11.387 6.351a63.857 63.857 0 0 1-16.8 1.272 53.9 53.9 0 0 1-15.441-2.776 12.213 12.213 0 0 1-8.232-12.545c.536-6.116 1.755-12.316 5.131-17.5 4.328-6.647 11.891-11.217 19.93-10.844 1.432.075 2.865-.015 4.321-.023zm-.122 1.1c-1.546.009-3.059.067-4.642.011-7.236-.236-14.112 3.891-18.346 9.873a20.756 20.756 0 0 0-2.649 5.2 45.312 45.312 0 0 0-2.639 12.272 10.824 10.824 0 0 0 6.948 11.225 61.959 61.959 0 0 0 24.805 2.736 37 37 0 0 0 12.446-2.757c3.611-1.633 6.782-4.536 7.675-8.67 1.259-5.827-1.2-11.981-3.779-16.732-2.607-4.81-6.441-9.146-11.633-11.435a20.229 20.229 0 0 0-8.186-1.721z" class="cls-3" transform="translate(-155.076 -12.263)"/>
                        <path id="Shape-22" d="M.006.216C.129-.192.763.157 1.283.358A7.3 7.3 0 0 0 7.214 0s.605-.056.475.386C7.606.669 7.1.8 6.738.95A8.013 8.013 0 0 1 .271.636S-.049.485.006.216z" class="cls-3" transform="rotate(81.894 1.79 38.442)"/>
                        <path id="Shape-23" d="M338.273.957c.362.037.634.408.921.727a3.939 3.939 0 0 1 .8 1.363 3.76 3.76 0 0 0 1.138-1.34.427.427 0 0 1 .216-.2c.279-.085.58.191.3.655a8.853 8.853 0 0 1-1.62 1.8.405.405 0 0 1-.582-.361 3.362 3.362 0 0 0-1.395-2.04.4.4 0 0 1-.135-.221.318.318 0 0 1 .357-.383z" class="cls-3" transform="translate(-282.808 -.957)"/>
                        <path id="Shape-24" d="M.471 1.193C-.13 1.123-.3.156.825.055A18.2 18.2 0 0 1 4.052.1s.4.1.485.394c.123.414-.286.726-.888.678a13.271 13.271 0 0 0-3.039.016s-.001.012-.139.005z" class="cls-3" transform="rotate(176.906 20.788 11.612)"/>
                        <path id="Shape-25" d="M.544 0l.318.017A27.474 27.474 0 0 0 3.934 0s.543.087.589.488a.572.572 0 0 1-.492.609l-.114.008a27.254 27.254 0 0 1-3.378 0 .689.689 0 0 1-.5-.355A.543.543 0 0 1 .544 0z" class="cls-3" transform="rotate(5.723 -173.399 721.218)"/>
                        <path id="Shape-26" d="M405.046 43.254a7.89 7.89 0 0 1 2.825 1.593.417.417 0 0 1 .116.349c-.14.5-1.008-.231-1.8-.684a10.433 10.433 0 0 0-1.284-.621s-.217-.129-.207-.323a.3.3 0 0 1 .35-.314z" class="cls-3" transform="translate(-338.677 -36.342)"/>
                        <path id="Shape-27" d="M422.8 73.16l.25-.068a36.16 36.16 0 0 0 4.012-1.222c1.522-.645 5.519-2.294 7.5-5.766a13.182 13.182 0 0 0 1.5-8.211s-.272-5.34-4.331-12.57c-4.616-8.223-10.33-10.277-10.33-10.277s9.309 7.011 11.567 22.121a15.248 15.248 0 0 1-3.013 10.822c-1.63 2.018-3.637 3.318-6.912 5.1" class="cls-5" transform="translate(-352.658 -29.475)"/>
                        <path id="Shape-28" d="M.129.08C.364-.069.366.015.661.129c3.631 1.374 7.922.991 11.67-.1 0 0 .4-.006.428.292.018.23-.247.345-.5.417A19.622 19.622 0 0 1 .739.861C.511.783.186.65.186.65A.341.341 0 0 1 .129.08z" class="cls-3" transform="rotate(40.566 13.326 90.937)"/>
                        <path id="Shape-29" d="M0 1.214C-.007.84.574.7 1.043.515a7.947 7.947 0 0 1 6.352.318c.291.145.465.583.055.681-.257.062-.628-.23-.961-.364a7.368 7.368 0 0 0-6 .338S.038 1.553 0 1.214z" class="cls-3" transform="rotate(98.106 23.883 48.293)"/>
                        <path id="Shape-30" d="M318.36 275.212v5.8a.8.8 0 0 1-.013.148 1.045 1.045 0 0 1-.417.627 1.217 1.217 0 0 1-.143.095 12.19 12.19 0 0 1-6.278 1.626c-.08 0-.163 0-.243-.007a15.106 15.106 0 0 1-6.215-1.6.649.649 0 0 1-.107-.066 1.1 1.1 0 0 1-.279-.232.217.217 0 0 1-.036-.047.625.625 0 0 1-.131-.221.046.046 0 0 1-.016-.035.659.659 0 0 1-.042-.137.669.669 0 0 1-.02-.163v-5.788c.962.512 1.919.953 2.81 1.317a13.562 13.562 0 0 0 4.162 1.165 7.537 7.537 0 0 0 1.911-.362 27.746 27.746 0 0 0 5.057-2.12z" class="cls-10" transform="translate(-254.786 -230.554)"/>
                        <path id="Shape-31" d="M301.618 271.848l.235.076a19.742 19.742 0 0 0 6.248 2.368 6.157 6.157 0 0 0 2.717-.463 27.647 27.647 0 0 0 4.426-1.914.682.682 0 0 1 .425-.042.577.577 0 0 1 .4.527v5.8c-.014 1.322-1.78 1.921-3.186 2.391a14.613 14.613 0 0 1-10.826-.965c-.066-.032-.131-.064-.194-.1a2.6 2.6 0 0 1-.5-.412 1.249 1.249 0 0 1-.353-.927V272.4a.574.574 0 0 1 .608-.552zm.505 6.332c.007.434.262.378.335.418a14.347 14.347 0 0 0 5.843 1.536 11.968 11.968 0 0 0 6.367-1.549.826.826 0 0 0 .282-.388v-4.888a18.931 18.931 0 0 1-5.923 2.09 6.891 6.891 0 0 1-2.835-.437 28.054 28.054 0 0 1-4.064-1.655h-.005z" class="cls-3" transform="translate(-251.934 -227.742)"/>
                        <path id="Shape-32" d="M368.491 287.071a13.121 13.121 0 0 0 2.4-.967c.039-.02.3-.165.329-.192a.446.446 0 0 0 .177-.28 2.607 2.607 0 0 0 0-.3v-4.669c-.847.473-1.634.749-2.387 1.089l.008 3.708a3.075 3.075 0 0 1-.169 1.032 1.057 1.057 0 0 1-.362.574" class="cls-5" transform="translate(-308.389 -235.122)"/>
                        <path id="Shape-33" d="M234.833 159.3v6.382a3.76 3.76 0 0 1-2.658-.9 3.291 3.291 0 0 1-.66-4.626 3.149 3.149 0 0 1 3.318-.856z" class="cls-10" transform="translate(-193.227 -133.393)"/>
                        <path id="Shape-34" d="M230.968 155.782a4.31 4.31 0 0 1 1.1.162s.419.183.431.538v6.382c-.008.237-.045.238-.1.318a.923.923 0 0 1-.812.239c-2.961-.087-5.639-3.92-3.34-6.488a3.629 3.629 0 0 1 2.721-1.151zm-.061 1.1a2.428 2.428 0 0 0-2.394 2.069 3.253 3.253 0 0 0 2.85 3.349l.02-5.382-.114-.016a3.206 3.206 0 0 0-.363-.018z" class="cls-3" transform="translate(-190.333 -130.573)"/>
                        <path id="Shape-35" d="M.066.14c.365-.488 1.507.921 2.573-.058A.4.4 0 0 1 2.918 0c.306.053.352.45-.044.753A2.281 2.281 0 0 1 .115.575.312.312 0 0 1 .066.14z" class="cls-3" transform="rotate(58.297 -5.11 49.933)"/>
                        <path id="Shape-36" d="M441.279 165.119a3.76 3.76 0 0 1-2.658.9v-6.382a3.149 3.149 0 0 1 3.318.86 3.291 3.291 0 0 1-.66 4.626" class="cls-10" transform="translate(-367.058 -133.672)"/>
                        <path id="Shape-37" d="M4.591.336A3.553 3.553 0 0 1 6.14 5.168 4.471 4.471 0 0 1 .371 6.806a.56.56 0 0 1-.314-.764L2.846.286C3.119-.231 4 .057 4.591.336zm-.529.971c-.16-.073-.4-.15-.4-.15L1.307 6.013l.088.029c1.895.58 4.452-.832 4.072-3a2.44 2.44 0 0 0-1.406-1.735z" class="cls-3" transform="rotate(-25.6 93.463 -136.9)"/>
                        <path id="Shape-38" d="M.038.986C-.261.426 1.262-.2 2.2.061c.543.152 1.137.573.945.921-.2.371-.758-.223-1.233-.31a1.756 1.756 0 0 0-1.367.406.326.326 0 0 1-.507-.092z" class="cls-3" transform="rotate(121.703 29.021 35.005)"/>
                        <path id="Shape-39" fill="#553197" fill-rule="evenodd" d="M255.836 680.367h-43.825l2.587-27.513.662-7.038h37.777l1.07 13.191.245 3.036z" transform="translate(-177.48 -540.918)"/>
                        <path id="Shape-40" d="M250.289 642.454c.383.1.406.156.464.5l1.07 13.192.245 3.036 1.484 18.323c0 .263-.041.273-.089.346a.49.49 0 0 1-.466.249h-43.826c-.267-.022-.274-.063-.344-.117a.482.482 0 0 1-.211-.484l2.587-27.513.662-7.038a.6.6 0 0 1 .555-.5h37.78zm-37.361 1.094l-.615 6.538L209.782 677h42.61l-1.436-17.728-.245-3.036-1.029-12.685z" class="cls-3" transform="translate(-174.64 -538.098)"/>
                        <path id="Shape-41" d="M0 0H3.755V13.501H0z" class="cls-12" transform="rotate(180 29.235 59.48)"/>
                        <path id="Shape-42" d="M407.878 658.9c.329.025.437.627 0 .66-.745.019-1.491 0-2.236 0-.328-.008-.5-.661 0-.661.746.001 1.491-.022 2.236.001z" class="cls-3" transform="translate(-339.207 -551.742)"/>
                        <path id="Shape-43" d="M256.317 658.942a.335.335 0 0 1-.058.656h-26.926c-.35-.03-.43-.624 0-.661h26.927z" class="cls-13" transform="translate(-191.726 -551.784)"/>
                        <path id="Shape-44" d="M9.785.094c.339.367-.514.76-1.2 1.023A9.539 9.539 0 0 1 .161.612S-.062.424.017.213.275-.09.6.106A9.479 9.479 0 0 0 9.4.032a.449.449 0 0 1 .385.062z" class="cls-13" transform="rotate(-39.65 179.781 4.512)"/>
                        <path id="Shape-45" d="M9.732 1.752c-.252.156-.376 0-.521-.066C6.481.37 3.046.12.506 1.757c0 0-.31.115-.454-.084-.246-.338.432-.691.978-.926a10.385 10.385 0 0 1 8.6.408s.42.357.102.597z" class="cls-13" transform="rotate(-140.35 57.739 45.36)"/>
                        <path id="Shape-46" d="M432.615 682.558h6.552l-2.7-33.472h-4.497z" class="cls-12" transform="translate(-361.494 -543.654)"/>
                        <path id="Shape-47" d="M285.473 92.7v11.74c0 4.7-4.031 8.885-7.979 11.593a27.869 27.869 0 0 1-5.057 2.118 7.561 7.561 0 0 1-1.91.362 13.573 13.573 0 0 1-4.163-1.164c-.89-.364-1.846-.806-2.809-1.318-3.95-2.71-7.979-6.889-7.979-11.587l-.038-11.757c7.424-1.39 13.066-6.231 14.563-7.622a.517.517 0 0 1 .7 0c1.499 1.393 7.199 6.274 14.672 7.635z" class="cls-10" transform="translate(-213.89 -71.201)"/>
                        <path id="Shape-48" d="M267.62 81.552a1.364 1.364 0 0 1 .859.425 29.33 29.33 0 0 0 14.244 7.365.6.6 0 0 1 .455.542c0 3.932.013 7.863 0 11.8-.039 3.889-2.693 7.4-5.517 9.889a18.718 18.718 0 0 1-2.713 2.1s-.2.109-.395.207a20.735 20.735 0 0 1-6.215 2.3c-2.626.4-5.432-1.2-7.718-2.393a27.4 27.4 0 0 1-2.486-1.838q-.693-.583-1.343-1.213c-2.537-2.467-4.617-5.54-4.629-9.118l-.038-11.757c.035-.473.211-.494.707-.592a29.673 29.673 0 0 0 13.71-7.14 1.655 1.655 0 0 1 1.079-.577zm-.07 1.16a30.814 30.814 0 0 1-14.311 7.6c.012 3.8 0 7.606.037 11.409.054 3.238 2.137 6.155 4.378 8.312a26.5 26.5 0 0 0 3.27 2.657l.072.05a19.679 19.679 0 0 0 6.235 2.362 6.155 6.155 0 0 0 2.717-.464 27.78 27.78 0 0 0 4.423-1.911l.225-.157c3.74-2.64 7.253-6.176 7.459-10.592.006-.12.008-.24.008-.36v-11.28a30.834 30.834 0 0 1-14.422-7.626s-.004-.081-.091 0zm-7.394 30.635l.028.068s-.051-.262-.028-.068z" class="cls-3" transform="translate(-211.038 -68.382)"/>
                        <path id="Shape-49" d="M368.668 132.161a3.16 3.16 0 0 1 0 .318l-.014 10.61c.019 3.353-1.554 5.968-3.81 8.266a17.479 17.479 0 0 1-9.2 5.351c2.27-.583 5.546-3.56 7.1-5.207a12.171 12.171 0 0 0 3.638-8.4l-.018-11.513s.716.208 1.053.294.92.213 1.054.244.195.04.195.04" class="cls-5" transform="translate(-297.644 -110.326)"/>
                        <path id="Shape-50" d="M299.567 163.515a.992.992 0 0 0 0-1.983.992.992 0 0 0 0 1.983" class="cls-3" transform="translate(-249.917 -135.383)"/>
                        <path id="Shape-51" d="M384.808 163.516a.992.992 0 0 0 0-1.983.992.992 0 0 0 0 1.983" class="cls-3" transform="translate(-321.229 -135.384)"/>
                        <path id="Shape-52" d="M1.907 0c.428.026.672.678-.045.925S-.1 1.082.006.378C.051.068.421-.035.747.095c.426.164.91-.101 1.16-.095z" class="cls-3" transform="rotate(-.159 11028.885 -19978.427)"/>
                        <path id="Shape-53" d="M5.224.022A.552.552 0 0 1 5.07 1.1H.511c-.56-.015-.793-1.08 0-1.1H5.07a.526.526 0 0 1 .154.022z" class="cls-3" transform="rotate(-13.534 111.92 -188.397)"/>
                        <path id="Shape-54" d="M.471.007A.884.884 0 0 1 .561 0h4.258c.439.012.441.158.517.347a.571.571 0 0 1-.517.755H.561C.142 1.091.137.956.056.782A.536.536 0 0 1 .471.007z" class="cls-3" transform="rotate(13.488 -53.292 268.553)"/>
                        <path id="Shape-55" d="M284.191 188.779c0 .965-1.208 1.748-2.7 1.748s-2.7-.783-2.7-1.748 1.208-1.748 2.7-1.748 2.7.783 2.7 1.748" class="cls-7" transform="translate(-233.352 -156.731)"/>
                        <path id="Shape-56" d="M387.31 188.781c0 .965-1.208 1.748-2.7 1.748s-2.7-.783-2.7-1.748 1.208-1.748 2.7-1.748 2.7.783 2.7 1.748" class="cls-7" transform="translate(-319.62 -156.732)"/>
                        <path id="Shape-57" d="M369.394 145.009a4.351 4.351 0 0 1-4.374 4.327 4.275 4.275 0 0 1-.809-.076 4.018 4.018 0 0 1-.592-.152 4.4 4.4 0 0 1-1.727-1.074 4.292 4.292 0 0 1-1.248-3.026 4.343 4.343 0 0 1 4.048-4.312c.109-.011.217-.015.328-.015a4.315 4.315 0 0 1 .939.1 4.067 4.067 0 0 1 .745.234 3.757 3.757 0 0 1 .545.271 4.309 4.309 0 0 1 2.145 3.721" class="cls-5" transform="translate(-301.824 -117.932)"/>
                        <path id="Shape-58" d="M287.637 145.009a4.351 4.351 0 0 1-4.374 4.327 4.275 4.275 0 0 1-.809-.076 4.019 4.019 0 0 1-.592-.152 4.4 4.4 0 0 1-1.727-1.074 4.292 4.292 0 0 1-1.248-3.026 4.343 4.343 0 0 1 4.048-4.312c.109-.011.217-.015.328-.015a4.317 4.317 0 0 1 .939.1 4.075 4.075 0 0 1 .745.234 3.778 3.778 0 0 1 .545.271 4.309 4.309 0 0 1 2.144 3.721" class="cls-5" transform="translate(-233.427 -117.932)"/>
                        <path id="Shape-59" d="M372.348 140.784l-3.058 8.011a4.349 4.349 0 0 1-1.009-.76l2.8-7.338c.109-.01.217-.015.328-.015a4.316 4.316 0 0 1 .939.1" class="cls-7" transform="translate(-308.213 -117.933)"/>
                        <path id="Shape-60" d="M382.48 143l-3.039 7.972a4.014 4.014 0 0 1-.592-.152l3.086-8.091a3.713 3.713 0 0 1 .545.271" class="cls-7" transform="translate(-317.055 -119.647)"/>
                        <path id="Shape-61" d="M290.59 140.784l-3.058 8.011a4.348 4.348 0 0 1-1.009-.76l2.8-7.338c.109-.01.217-.015.328-.015a4.317 4.317 0 0 1 .939.1" class="cls-7" transform="translate(-239.815 -117.933)"/>
                        <path id="Shape-62" d="M300.722 143l-3.039 7.972a4.016 4.016 0 0 1-.592-.152l3.086-8.091a3.733 3.733 0 0 1 .545.271" class="cls-7" transform="translate(-248.657 -119.647)"/>
                        <path id="Shape-63" d="M9.833 4.89a5.026 5.026 0 0 1-4 4.758 5.106 5.106 0 0 1-5.523-3A5.024 5.024 0 0 1 3.58.159 5.057 5.057 0 0 1 9.832 4.8l.001.09zm-1.115-.056a3.891 3.891 0 0 0-3.072-3.679A3.966 3.966 0 0 0 1.082 4.81a3.881 3.881 0 0 0 2.773 3.681 3.921 3.921 0 0 0 4.861-3.51c.002-.049.002-.098.002-.147z" class="cls-3" transform="rotate(-90 38.513 -6.528)"/>
                        <path id="Shape-64" d="M9.831 4.888a5.024 5.024 0 0 1-4 4.758A5.1 5.1 0 0 1 .33 6.7 5.018 5.018 0 0 1 3.548.164a5.077 5.077 0 0 1 6.282 4.63l.001.094zm-1.114-.056a3.892 3.892 0 0 0-3.073-3.679A3.961 3.961 0 0 0 1.08 4.807a3.878 3.878 0 0 0 2.8 3.687 3.914 3.914 0 0 0 4.835-3.516l.002-.146z" class="cls-3" transform="rotate(-90 45.204 -13.199)"/>
                        <path id="Shape-65" d="M332.409 161.315a4.072 4.072 0 0 1 2.677 1.007.562.562 0 0 1-.831.756 3.171 3.171 0 0 0-3.737-.02c-.459.349-.441.309-.739.138-.42-.24-.244-.843.374-1.227a4.136 4.136 0 0 1 2.256-.654z" class="cls-3" transform="translate(-275.811 -135.201)"/>
                        <path id="Shape-66" d="M5.518 1.028a.509.509 0 0 1-.279.074H.507C-.067 1.087-.264.02.507 0h4.732a.551.551 0 0 1 .279 1.028z" class="cls-3" transform="rotate(-146 27.087 6.985)"/>
                        <path id="Shape-67" d="M5.59.107a.56.56 0 0 1-.327 1H.53C-.032 1.088-.308.023.53 0h4.732a.393.393 0 0 1 .328.107z" class="cls-3" transform="rotate(-34 77.64 -95.908)"/>
                        <path id="Shape-68" d="M331.46 212.228a4.143 4.143 0 0 1 2.922 1.033.558.558 0 0 1-.863.706 3.548 3.548 0 0 0-4.305.069.688.688 0 0 1-.491.163.574.574 0 0 1-.221-1.017 4.252 4.252 0 0 1 2.842-.954z" class="cls-3" transform="translate(-274.75 -177.823)"/>
                        <path id="Shape-69" d="M152.958 473.8s-.557 1.007-1.551 2.5a42.654 42.654 0 0 1-7.545 8.749 5.579 5.579 0 0 0 .62-.639v-.007c2.453-2.939 2.349-8.278 1.812-14.533.272.121.544.251.816.386.091.044.183.09.272.137.365.185.729.379 1.09.577.8.445 1.587.917 2.322 1.384.798.511 1.534 1.007 2.164 1.446z" class="cls-10" transform="translate(-120.467 -393.541)"/>
                        <path id="Shape-70" d="M143.627 466.52a.6.6 0 0 1 .167.046 41.236 41.236 0 0 1 6.632 3.9.73.73 0 0 1 .18.987 42.575 42.575 0 0 1-8.96 11.084s-.4.379-.755.211c-.406-.189-.386-.667 0-1.034 1.876-1.8 2.285-4.67 2.4-7.229a57.486 57.486 0 0 0-.283-7.368s.099-.628.619-.597zm.576 1.523c.286 3.662.578 7.425-.464 10.894l-.008.026a46.691 46.691 0 0 0 5.744-7.781l.014-.023a43.7 43.7 0 0 0-5.291-3.179l.002.063z" class="cls-3" transform="translate(-117.733 -390.734)"/>
                        <path id="Shape-71" d="M25.807 229.078q.821 3.109 1.541 6.243c.639 2.793 1.149 4.272 1.6 7.131.087.551.435 2.835.482 3.377.537 6.255.586 11.1-1.867 14.042v.006a5.576 5.576 0 0 1-.619.639l-.053.046a.224.224 0 0 1-.047.037 2.491 2.491 0 0 1-3.472-.068c-3.835-3.069-5.391-10.883-5.736-16.283-.166-2.59-.474-6.823-.512-11.663l-.391-12.541a12.189 12.189 0 0 0-.169-1.654 2.474 2.474 0 0 0-1.644-2.234l-.023-.011A23.606 23.606 0 0 1 8.4 212.04a3.761 3.761 0 0 1-1.223-1.669.9.9 0 0 0-.367-.328 1.526 1.526 0 0 1-.536-.564 18.5 18.5 0 0 1-1.221-4.693l-.009-.024a4.918 4.918 0 0 1-.927-2.538c.14-.777.718-.574.877-.484a.051.051 0 0 0 .017.007.083.083 0 0 0 .086-.029.6.6 0 0 1 .538-.236c1.11.107 1.123 1.581 1.119 1.834a.078.078 0 0 0 .026.061c.317.286.364 1.231.37 1.4a.069.069 0 0 0 .02.048 12.928 12.928 0 0 0 3.093 2.108 10.2 10.2 0 0 0 3.98 1.323.078.078 0 0 0 .053-.141c-1.119-.776-2.552-1.945-2.7-2.943-.239-1.664.991-1.115 1.421-.761a59.516 59.516 0 0 0 6.411 4.541 5.392 5.392 0 0 1 2.708 6.008c-.067.38 1.887 7.351 1.983 7.722z" class="cls-10" transform="translate(-3.547 -168.906)"/>
                        <path id="Shape-72" d="M2.746 198.108c1 .031 1.665 1.171 1.709 2.194a4.851 4.851 0 0 1 .385 1.407 17.512 17.512 0 0 0 1.917 1.391 15.019 15.019 0 0 0 2.7 1.335s.064.052-.179-.192A2.851 2.851 0 0 1 8.24 201.4a1.062 1.062 0 0 1 .741-.7 2.3 2.3 0 0 1 1.84.713 48.4 48.4 0 0 0 6.126 4.3 5.232 5.232 0 0 1 .574.369 6.253 6.253 0 0 1 2.325 6.088s.309 1.435.637 2.681c1.573 5.974 3.248 11.924 4.646 17.913a70.486 70.486 0 0 1 2.057 10.786 36.017 36.017 0 0 1-.055 9.209 9.906 9.906 0 0 1-1.926 4.571 5.574 5.574 0 0 1-.789.819c-.093.08-.108.091-.146.121a3.109 3.109 0 0 1-3.057.514c-1.854-.77-3.089-2.693-4.037-4.627-2.2-4.48-2.754-9.628-3.075-14.613-.2-3.177-.353-6.362-.386-9.542v-.221l-.39-12.527c-.065-1.065-.09-2.273-.691-2.9a4.308 4.308 0 0 0-1.388-.78 21.9 21.9 0 0 1-6.516-4.361 5.1 5.1 0 0 1-.874-1.356c-.086-.175-.3-.228-.435-.338a2.082 2.082 0 0 1-.343-.365 7.86 7.86 0 0 1-1.043-2.983q-.218-.986-.364-1.986A7.235 7.235 0 0 1 .7 199.49a1.181 1.181 0 0 1 1.37-1.182 1.3 1.3 0 0 1 .676-.2zm-.025 1.1c-.081 0-.092.1-.173.156-.417.29-.847-.357-.718.38a5.138 5.138 0 0 0 .783 1.826l.14.322.029.2a11.833 11.833 0 0 0 1.154 4.344.914.914 0 0 0 .091.124c.235.271.611.394.8.739.189.381-.014.2.415.8a8.178 8.178 0 0 0 1.628 1.506 26.592 26.592 0 0 0 5.481 3.252c1.44.679 1.962 2.226 2.091 4.341l.391 12.556c.054 6.14.023 12.3 1.554 18.7.768 3.212 1.82 6.556 4.323 8.694q.1.084.2.164a2.084 2.084 0 0 0 2.058.461 3.2 3.2 0 0 0 .691-.432 8.318 8.318 0 0 0 1.1-1.276c1.472-2.265 1.6-5.1 1.571-7.741-.017-1.767-.139-3.53-.3-5.293-.533-5.489-2.063-10.752-3.557-16.442-1.214-4.608-2.659-9.147-3.657-13.865-.177-.837.1-1.7-.02-2.564a5.61 5.61 0 0 0-2.939-3.8 52.625 52.625 0 0 1-5.833-4.17 4.7 4.7 0 0 0-.727-.418c-.248.933.914 1.9 1.786 2.579.293.227.728.532.728.532a.5.5 0 0 1 .224.414c.045.4-.27.738-.82.683a13.134 13.134 0 0 1-6.993-3.3c-.133-.116-.315-.3-.315-.3-.131-.151-.121.042-.176-.621a3.08 3.08 0 0 0-.182-.8c-.414-.4.044-.037-.289-1.184-.01-.034-.021-.068-.033-.1a.981.981 0 0 0-.506-.465z" class="cls-3" transform="translate(-.696 -166.085)"/>
                        <path id="Shape-73" d="M68.452 261.061a.469.469 0 0 1 .236.081 2.7 2.7 0 0 0 1.641.069 3.98 3.98 0 0 1 .478-.082 4.367 4.367 0 0 1 3.149 1.035c.335.251.1.9-.405.525a3.892 3.892 0 0 0-3.286-.786 3.081 3.081 0 0 1-1.973-.214.332.332 0 0 1 .134-.629z" class="cls-3" transform="translate(-57.094 -218.703)"/>
                        <path id="Shape-74" d="M6.6 199.581a.481.481 0 0 1 .2.055c.422.206.232.837.2 1.429a.793.793 0 0 1 .65-.11 1.767 1.767 0 0 1 .937.407.682.682 0 0 1 .174.606.589.589 0 0 1-.911.222c-.166-.122-.3-.349-.433.158a7.311 7.311 0 0 0-.181 1.912s-.1.509-.5.551c-.348.037-.581-.257-.652-.734a10.992 10.992 0 0 1-.082-4.059.577.577 0 0 1 .598-.437z" class="cls-3" transform="translate(-5.006 -167.237)"/>
                        <path id="Shape-75" d="M20.13 229.8c1.015.031 1.357 1.5 1.286 2.422-.02.261-.078.633-.078.633l.1.1c.2.2.46.5.46.5l.073.017c.8.209 1.792.549 1.508 1.2a.6.6 0 0 1-.826.243 3.752 3.752 0 0 0-1.105-.412c-.435-.133-.7-.568-1.04-.909a1.636 1.636 0 0 1-.25-1.027c.093-.624.095-1.418-.144-1.648a3.641 3.641 0 0 0-.41 2.974.683.683 0 0 1-.167.6.6.6 0 0 1-.941-.412 5.073 5.073 0 0 1 .507-3.63 1.175 1.175 0 0 1 1.027-.651z" class="cls-3" transform="translate(-15.546 -192.533)"/>
                        <path id="Shape-76" d="M.012.445A.575.575 0 0 1 .534.008c.812-.017 1.624 0 2.436 0 .554.011.818 1.053.023 1.1-.812.017-1.624 0-2.436 0A.542.542 0 0 1 .012.445z" class="cls-3" transform="rotate(80.725 -18.727 20.038)"/>
                        <path id="Shape-77" d="M164.579 488.007l.99.664s-.516.887-1.357 2.141l-.046.07a43.114 43.114 0 0 1-4.353 5.582l.363-1.464.043-.3.114-.834a37.773 37.773 0 0 0 3.388-6.414l.769.5z" class="cls-5" transform="translate(-133.812 -408.241)"/>
                        <path id="Shape-78" d="M118.392 328.339a7.521 7.521 0 0 1-1.934 3.413 1.948 1.948 0 0 1-2.692.3c6.839-4.515 1.38-27.81.814-30.078-.61-2.445-3.072-14.311-3.143-14.758.212.8 1.749 6.641 1.872 7.163.134.564 2.03 7.632 2.277 8.646s1.688 6.975 1.688 6.975.546 2.113 1.043 5.213a50.338 50.338 0 0 1 .606 6.3s.192 4.726-.53 6.826" class="cls-5" transform="translate(-93.341 -240.674)"/>
                        <path id="Shape-79" d="M0 .08a5.18 5.18 0 0 1 1.766 0" class="cls-10" transform="rotate(121.935 -3.468 28.245)"/>
                        <path id="Shape-80" d="M.071.93C-.177.5.249.1.967.042c.746-.064 1.781-.146 1.9.512a.588.588 0 0 1-.762.613C1.328 1.03.414 1.48.071.93z" class="cls-3" transform="rotate(121.935 -3.036 28.372)"/>
                        <path id="Shape-81" d="M.256.973C-.035.918-.127.535.243.288a1.449 1.449 0 0 1 1.789.043c.234.223.2.7-.207.643C1.622.942 1.52.7 1.291.644.887.545.59 1.021.256.973z" class="cls-3" transform="scale(-1) rotate(-7.4 -709.526 131.323)"/>
                        <path id="Shape-82" d="M.3 0c.429-.024.774.612 1.372.079.289-.236.988.154.209.7A1.5 1.5 0 0 1 .1.574.335.335 0 0 1 .3 0z" class="cls-3" transform="rotate(7.389 -647.754 746.308)"/>
                        <path id="Shape-83" d="M503.619 482.7a42.032 42.032 0 0 1-7.287-8.364c-1.154-1.705-1.809-2.887-1.809-2.887a1.6 1.6 0 0 0 .192-.163c.452-.346 1.005-.754 1.633-1.194l.038-.026c1.043-.738 2.291-1.562 3.628-2.331q.308-.178.606-.344c.205-.115.408-.225.6-.331-.016.172-.029.331-.04.46-.528 6.154-.637 11.42 1.7 14.388.038.049.076.1.116.145v.007a5.59 5.59 0 0 0 .623.64z" class="cls-10" transform="translate(-413.825 -391.184)"/>
                        <path id="Shape-84" d="M498.752 463.7c.433.073.491.581.45 1.054a39.5 39.5 0 0 0-.029 9.912 7.866 7.866 0 0 0 2.258 4.791.691.691 0 0 1 .184.59c-.126.41-.641.477-1.116.07a41.862 41.862 0 0 1-8.992-11.2.91.91 0 0 1 .281-.837s.615-.473 1.129-.844a49.641 49.641 0 0 1 5.354-3.392.841.841 0 0 1 .481-.144zm-.767 1.567a50.136 50.136 0 0 0-5.2 3.444l-.076.058a47.181 47.181 0 0 0 5.729 7.783l.049.053-.055-.184c-1.022-3.575-.689-7.4-.383-11.184-.006.004-.043.021-.064.034z" class="cls-3" transform="translate(-411.289 -388.377)"/>
                        <path id="Shape-85" d="M558.012 204.757c0 .009-.006.015-.011.024a18.427 18.427 0 0 1-1.221 4.693 1.518 1.518 0 0 1-.535.564.875.875 0 0 0-.368.328 3.775 3.775 0 0 1-1.223 1.67 23.613 23.613 0 0 1-6.5 4.107.1.1 0 0 0-.022.011 2.344 2.344 0 0 0-1.513 1.63 5.018 5.018 0 0 0-.131.6 12.641 12.641 0 0 0-.169 1.655l-.011.361-.379 12.18c-.038 4.841-.345 9.073-.513 11.664-.345 5.4-1.9 13.213-5.736 16.282a2.491 2.491 0 0 1-3.472.068.244.244 0 0 1-.047-.037l-.053-.046a5.6 5.6 0 0 1-.619-.639v-.007c-.04-.048-.078-.1-.116-.146-2.333-2.968-2.224-8.234-1.7-14.387l.04-.461c.02-.22.042-.465.067-.705.038-.359.078-.712.118-.963.394-2.5.987-4.517 1.558-6.843.082-.342.167-.687.247-1.044q.715-3.136 1.54-6.244l1.689-6.392c.051-.2.633-2.283 1.154-4.239.252-.943.488-1.855.644-2.512a5.5 5.5 0 0 0 .185-.969 5.387 5.387 0 0 1 2.707-6.008 59.85 59.85 0 0 0 6.411-4.543c.428-.353 1.66-.9 1.419.762-.145 1-1.578 2.166-2.7 2.941a.078.078 0 0 0 .053.141 10.167 10.167 0 0 0 3.98-1.322 12.9 12.9 0 0 0 3.093-2.109.062.062 0 0 0 .02-.046c0-.174.051-1.117.37-1.406a.076.076 0 0 0 .025-.059c0-.253.009-1.727 1.119-1.835a.608.608 0 0 1 .539.236.077.077 0 0 0 .085.029.03.03 0 0 0 .018-.007c.158-.088.738-.293.876.485a4.913 4.913 0 0 1-.918 2.538z" class="cls-10" transform="translate(-446.318 -168.901)"/>
                        <path id="Shape-86" d="M548.114 200.751c1.066.048 1.375 1.648.575 2.818a6.113 6.113 0 0 1-.846.963l.167-.06a13.642 13.642 0 0 0 4.468-2.628 3.309 3.309 0 0 1 .393-1.431s.115-1.918 1.439-2.19c.4-.081.9.177 1.009.156 1.248-.213 1.647 1.768.37 3.821 0 0-.21 1.269-.433 2.238-.273 1.183-.466 2.541-1.474 3.26-.566.4-.524.784-.816 1.175a9.168 9.168 0 0 1-1.615 1.526 25.325 25.325 0 0 1-5.512 3.367 2.5 2.5 0 0 0-1.668 1.973q-.1.642-.144 1.291c0 .019-.019.289-.019.3 0 .118-.007.235-.011.353l-.379 12.174c-.063 7.248-.117 14.765-2.274 21.4-.86 2.644-2.106 5.3-4.18 6.966a3.307 3.307 0 0 1-2.768.8 3.459 3.459 0 0 1-1.334-.672 9.861 9.861 0 0 1-1.059-1.1c-1.986-2.6-2.129-6.217-2.058-9.581a49.25 49.25 0 0 1 1.181-10.5c1.637-6.89 3.4-13.663 5.259-20.506.379-1.4.8-2.8 1.075-4.227a1.053 1.053 0 0 0-.016-.474 6.15 6.15 0 0 1 2.892-6.145 67.215 67.215 0 0 0 6.563-4.638 1.9 1.9 0 0 1 1.215-.429zm6.494-1.458c-.738.071-.621 1.32-.621 1.32-.023.295-.262.484-.327.821-.048.247-.015.394-.084.752a2.044 2.044 0 0 0-.163.292 26.822 26.822 0 0 1-3.852 2.531 10.21 10.21 0 0 1-3.51 1.056.63.63 0 0 1-.5-1.127c1.032-.718 2.339-1.439 2.487-2.642 0-.039.009-.078.012-.117a2.055 2.055 0 0 0-.015-.327 1.344 1.344 0 0 0-.64.347 49.142 49.142 0 0 1-6.458 4.549 5.138 5.138 0 0 0-2.344 5.4s-.215 1.307-.524 2.5c-1.583 6.119-3.357 12.274-4.757 18.329l-.094.4a60.12 60.12 0 0 0-1.863 9.277c-.313 3.676-.679 7.466.184 10.947a8.14 8.14 0 0 0 1.508 3.2c.1.123.832.771.583.605a2.566 2.566 0 0 0 1.466.594 3.6 3.6 0 0 0 2.272-1.493c2.613-2.94 3.568-7.088 4.191-11.106a108 108 0 0 0 .94-15.551l.379-12.186.011-.37c.108-1.725.305-3.512 2.105-4.347 0 0 .857-.383 1.561-.738a19.929 19.929 0 0 0 5.216-3.648 3.709 3.709 0 0 0 .67-1.038c.092-.19-.045-.022.174-.3.272-.348.688-.453.934-1.013a15.723 15.723 0 0 0 1.02-4.193l.1-.281a3.65 3.65 0 0 0 .845-2.13c-.035-.338-.268-.039-.268-.039-.1 0-.008.032-.211 0-.27-.06-.373-.278-.427-.274z" class="cls-3" transform="translate(-443.447 -166.17)"/>
                        <path id="Shape-87" d="M594.734 261.065c.246.036.235.1.277.211.24.622-1.4.767-2.48.557a3.761 3.761 0 0 0-3.01.906c-.324.234-.829-.2-.315-.593a4.334 4.334 0 0 1 3.6-.932 2.666 2.666 0 0 0 1.751-.119.3.3 0 0 1 .177-.03z" class="cls-3" transform="translate(-492.851 -218.706)"/>
                        <path id="Shape-88" d="M672.415 199.576a.485.485 0 0 1 .177.034c.368.134.415.644.452 1.114a15.447 15.447 0 0 1-.223 3.62s-.183.486-.58.465c-.91-.048-.347-1.885-.814-2.758l-.347.151a.576.576 0 0 1-.92-.443c.029-.624 1.086-1.037 1.79-.7 0-.052-.005-.1-.009-.154-.022-.316-.234-.585-.053-1a.472.472 0 0 1 .527-.329z" class="cls-3" transform="translate(-560.76 -167.234)"/>
                        <path id="Shape-89" d="M648.034 229.8c.8.034 1.173 1 1.4 1.835a4.436 4.436 0 0 1 .037 2.576.558.558 0 1 1-1.037-.413 3.676 3.676 0 0 0-.431-2.87c-.137-.206-.254.994-.124 1.808a1.705 1.705 0 0 1-.409.986c-.2.207-.478.516-.478.516-.4.4-1.034.427-1.6.708 0 0-.526.139-.732-.222-.307-.536.62-1.051 1.54-1.269 0 0 .288-.314.559-.584a7.875 7.875 0 0 1-.058-1.513 1.758 1.758 0 0 1 .8-1.435 1.255 1.255 0 0 1 .533-.123z" class="cls-3" transform="translate(-539.376 -192.534)"/>
                        <path id="Shape-90" d="M0 .626A.572.572 0 0 1 .533.008c.812-.017 1.624 0 2.436 0 .57.012.722 1.058.023 1.1-.812.017-1.624 0-2.436 0A.537.537 0 0 1 0 .626z" class="cls-3" transform="rotate(99.275 40.043 64.58)"/>
                        <path id="Shape-91" d="M559.416 299.623s-.38.494-.92 4.01-1.053 14.064-1.764 20.814c-.154 1.461-.683 9.366-3.556 14.879a3.8 3.8 0 0 1-3.9 2.278c1.6 1.629 2.276 1.434 3.755.169s2.333-3.263 3.3-5.766a39.684 39.684 0 0 0 1.678-7.932c.228-1.659.569-10.013.569-10.013s.341-11.617.455-14.879.434-3.685.434-3.685" class="cls-5" transform="translate(-459.634 -250.954)"/>
                        <path id="Shape-92" d="M581.063 291.8a5.078 5.078 0 0 0-.132.6 12.741 12.741 0 0 0-.169 1.655l-.011.361-6.222-1.961c.252-.943.488-1.855.644-2.512z" class="cls-14" transform="translate(-480.758 -242.883)"/>
                        <path id="Shape-93" d="M572.487 286.573a.549.549 0 0 1 .144.025l5.89 1.855c.6.212.188 1.254.106 2.5 0 .018-.019.29-.019.3-.007.163-.013.389-.013.389-.032.245-.085.257-.149.325a.525.525 0 0 1-.574.147l-6.222-1.961a.456.456 0 0 1-.163-.083c-.357-.262-.145-.812-.022-1.279.157-.6.312-1.2.456-1.8-.001.009.196-.422.566-.418zm.348 1.367q-.166.655-.338 1.309l5.02 1.6.024-.332a10.888 10.888 0 0 1 .152-1.162l-4.83-1.532z" class="cls-3" transform="translate(-478.047 -240.066)"/>
                        <path id="Shape-94" d="M.155.108A.358.358 0 0 1 .4 0h4.575c.354.011.476.646 0 .661H.4C-.194.642.009.278.155.108z" class="cls-3" transform="rotate(49.631 -62.98 113.834)"/>
                        <path id="Shape-95" d="M.09.147C.316-.092.949.03 1.475.038c.339.016.391.642 0 .661C.771.71-.122.8.014.285A.277.277 0 0 1 .09.147z" class="cls-3" transform="rotate(49.633 -62.098 116.206)"/>
                        <path id="Shape-96" d="M.094.108a.353.353 0 0 1 .224-.1c.819-.019 1.639 0 2.458 0 .34.008.412.633.016.661-.819.019-1.639 0-2.458 0a.333.333 0 0 1-.24-.561z" class="cls-3" transform="rotate(49.632 -64.995 114.039)"/>
                        <path id="Shape-97" d="M193.029 494.988a2.439 2.439 0 0 1-2.993 1.43c.994-1.494 1.551-2.5 1.551-2.5.06.044.123.088.185.13.045.033.091.064.134.1.165.117.319.229.466.335.245.181.459.346.64.494.006 0 .01.006.017.011z" class="cls-14" transform="translate(-159.096 -413.641)"/>
                        <path id="Shape-98" d="M189.082 490.549c.376.022.581.3.866.5l.229.165c.174.129.346.259.515.393a.7.7 0 0 1 .255.928 3.085 3.085 0 0 1-3.367 1.642c-.526-.106-.817-.451-.271-1.286.44-.677.87-1.36 1.264-2.063a.627.627 0 0 1 .509-.279zm.15 1.364q-.36.6-.738 1.2a2.09 2.09 0 0 0 1.294-.781s-.518-.483-.556-.419z" class="cls-3" transform="translate(-156.57 -410.824)"/>
                        <path id="Shape-99" d="M490.222 495.584c-2.3 0-2.7-1.613-2.7-1.613s.274-.229.758-.608c.167-.132.361-.282.577-.445a1.608 1.608 0 0 1-.192.163 25.53 25.53 0 0 0 1.557 2.503z" class="cls-14" transform="translate(-407.972 -412.805)"/>
                        <path id="Shape-100" d="M486.036 489.55a.568.568 0 0 1 .467.807c.41.718.866 1.415 1.331 2.1a.662.662 0 0 1 .084.41c-.11.564-1.089.5-1.856.26a2.589 2.589 0 0 1-1.939-1.909c-.06-.474.544-.776.964-1.107.25-.2.585-.452.585-.452a.49.49 0 0 1 .364-.109zm-.427 1.561l-.254.2a1.834 1.834 0 0 0 .842.695s-.275-.447-.517-.854c0 .001-.011-.089-.071-.042z" class="cls-3" transform="translate(-405.121 -409.987)"/>
                    </g>
                    <g id="Element-2" transform="translate(147.653 1.685)">
                        <path id="Shape-101" fill="#ff5470" fill-rule="evenodd" d="M267.51 21.846A11.544 11.544 0 1 1 255.966 10.3a11.544 11.544 0 0 1 11.544 11.546" transform="translate(-244.422 -10.302)"/>
                        <path id="Shape-102" fill="#fff" d="M161.009 67.7a3.7 3.7 0 0 0-.327-1.726 1.017 1.017 0 0 0-.93-.609.991.991 0 0 0-.918.609 3.831 3.831 0 0 0-.315 1.726 3.871 3.871 0 0 0 .315 1.732.99.99 0 0 0 .918.616 1.016 1.016 0 0 0 .93-.616 3.743 3.743 0 0 0 .327-1.732m2.195 0a5.44 5.44 0 0 1-.257 1.739 3.667 3.667 0 0 1-.712 1.276 2.983 2.983 0 0 1-1.091.78 3.736 3.736 0 0 1-2.772 0 2.98 2.98 0 0 1-1.091-.78 3.585 3.585 0 0 1-.706-1.276 5.558 5.558 0 0 1-.25-1.739 5.5 5.5 0 0 1 .25-1.733 3.592 3.592 0 0 1 .706-1.269 2.98 2.98 0 0 1 1.091-.78 3.737 3.737 0 0 1 2.772 0 2.983 2.983 0 0 1 1.091.78 3.674 3.674 0 0 1 .712 1.269 5.382 5.382 0 0 1 .253 1.733" transform="translate(-148.15 -56.581)"/>
                    </g>
                </g>
            </g>
        </g>
    </g>
</svg>
