<svg xmlns="http://www.w3.org/2000/svg" width="54" height="50.625" viewBox="0 0 54 50.625">
    <defs>
        <linearGradient id="kptm469h7a" x1=".5" x2=".5" y1="1" gradientUnits="objectBoundingBox">
            <stop offset="0" stop-color="#00b59c"/>
            <stop offset="1" stop-color="#9cffac"/>
        </linearGradient>
        <linearGradient id="gr8l13meqb" x1=".5" x2=".5" y1="1" gradientUnits="objectBoundingBox">
            <stop offset="0" stop-color="#c3ffe8"/>
            <stop offset=".997" stop-color="#f0fff4"/>
        </linearGradient>
    </defs>
    <g>
        <g>
            <path fill="url(#kptm469h7a)" d="M52.418 316H39.656a1.579 1.579 0 0 0-1.118.464l-5.865 5.877H21.327l-5.865-5.877a1.579 1.579 0 0 0-1.118-.464H1.582A1.583 1.583 0 0 0 0 317.585v15.853a1.583 1.583 0 0 0 1.582 1.585h50.836A1.583 1.583 0 0 0 54 333.439v-15.854A1.583 1.583 0 0 0 52.418 316z" transform="translate(0 31.601) translate(0 -316)"/>
        </g>
    </g>
    <g>
        <g>
            <path fill="url(#gr8l13meqb)" d="M171.589 35.024h-4.756V17.585A1.584 1.584 0 0 0 165.247 16h-6.341a1.584 1.584 0 0 0-1.585 1.585v17.439h-4.756a1.587 1.587 0 0 0-1.27 2.536l9.512 12.683a1.588 1.588 0 0 0 2.539 0l9.512-12.683a1.587 1.587 0 0 0-1.269-2.536z" transform="translate(15.9) translate(-150.977 -16)"/>
        </g>
    </g>
</svg>
