<svg xmlns="http://www.w3.org/2000/svg" width="54" height="61.44" viewBox="0 0 54 61.44">
    <defs>
        <linearGradient id="linear-gradient" x1=".5" x2=".5" y1="1" gradientUnits="objectBoundingBox">
            <stop offset="0" stop-color="#ffedad"/>
            <stop offset="1" stop-color="#ffffe5"/>
        </linearGradient>
        <linearGradient id="linear-gradient-2" x1=".5" x2=".5" y1="1" gradientUnits="objectBoundingBox">
            <stop offset="0" stop-color="#fd5900"/>
            <stop offset="1" stop-color="#ffde00"/>
        </linearGradient>
        <style>
            .cls-1{fill:url(#linear-gradient)}
        </style>
    </defs>
    <g id="medal" transform="translate(-31)">
        <g id="Group_5729" transform="translate(31)">
            <g id="Medal_1_">
                <g id="Group_5728">
                    <g id="Group_5727">
                        <path id="Path_7907" d="M84.8.982A1.8 1.8 0 0 0 83.2 0H68.8a1.8 1.8 0 0 0-1.464.758L58 14.127 48.664.758A1.8 1.8 0 0 0 47.2 0H32.8a1.8 1.8 0 0 0-1.6.982 1.818 1.818 0 0 0 .137 1.879L48.22 26.827a1.8 1.8 0 0 0 2.3.551 16.651 16.651 0 0 1 12.029-1.187c.037.014.063.044.1.054a16.55 16.55 0 0 1 2.862 1.146 1.8 1.8 0 0 0 2.271-.565L84.664 2.861A1.818 1.818 0 0 0 84.8.982z" class="cls-1" transform="translate(-31)"/>
                    </g>
                </g>
            </g>
        </g>
        <g id="Group_5730" transform="translate(38.233 21.673)">
            <path id="Path_7908" fill="url(#linear-gradient-2)" d="M110.767 221.9a19.927 19.927 0 0 1-9.137-37.551 20.248 20.248 0 0 1 14.778-1.437 27.531 27.531 0 0 1 3.468 1.422 19.927 19.927 0 0 1-9.108 37.567z" transform="translate(-91 -182.137)"/>
        </g>
        <g id="Group_5731" transform="translate(45.981 29.036)">
            <path id="Path_7909" d="M173.7 265.6l-5.46-2.946-5.522 2.827a1.807 1.807 0 0 1-2.6-1.934l1.114-6.1-4.4-4.376a1.809 1.809 0 0 1 1.035-3.075l6.149-.826 2.8-5.533a1.841 1.841 0 0 1 1.632-.991 1.806 1.806 0 0 1 1.61 1.026l2.686 5.591 6.13.957a1.809 1.809 0 0 1 .969 3.1l-4.489 4.282.984 6.126a1.808 1.808 0 0 1-2.638 1.872z" class="cls-1" transform="translate(-156.302 -242.644)"/>
        </g>
    </g>
</svg>
