<svg xmlns="http://www.w3.org/2000/svg" width="30.116" height="30.189" viewBox="0 0 30.116 30.189">
    <defs>
        <filter id="Path_7434" width="19.098" height="16.732" x="3.155" y="1.626" filterUnits="userSpaceOnUse">
            <feOffset dx="-1" dy="2"/>
            <feGaussianBlur result="blur" stdDeviation="2"/>
            <feFlood flood-color="#0bbe79"/>
            <feComposite in2="blur" operator="in"/>
            <feComposite in="SourceGraphic"/>
        </filter>
        <filter id="Path_7435" width="25.408" height="26.197" x="0" y="3.992" filterUnits="userSpaceOnUse">
            <feOffset dx="-1" dy="2"/>
            <feGaussianBlur result="blur-2" stdDeviation="2"/>
            <feFlood flood-color="#0bbe79"/>
            <feComposite in2="blur-2" operator="in"/>
            <feComposite in="SourceGraphic"/>
        </filter>
        <filter id="Path_7436" width="16.647" height="16.647" x="11.781" y="11.907" filterUnits="userSpaceOnUse">
            <feOffset dx="-.5" dy="1"/>
            <feGaussianBlur result="blur-3" stdDeviation="1"/>
            <feFlood flood-color="#0bbe79" flood-opacity=".647"/>
            <feComposite in2="blur-3" operator="in"/>
            <feComposite in="SourceGraphic"/>
        </filter>
        <clipPath id="clip-path">
            <path id="Books" d="M8.059 14.423a1.614 1.614 0 0 1-1.471-.953l-5.863-.586a.8.8 0 0 1-.725-.8V.806A.806.806 0 0 1 .8 0h.086l7.173.721L15.233 0h.082a.806.806 0 0 1 .8.806v11.276a.8.8 0 0 1-.726.8l-5.863.586a1.615 1.615 0 0 1-1.467.955zm0-12.9a.4.4 0 0 0-.4.4v11.291a.4.4 0 1 0 .806 0V1.931a.4.4 0 0 0-.406-.404zm5.714 8.226a.663.663 0 0 0-.068 0l-3.713.381a.8.8 0 0 0-.724.8.081.081 0 0 0 .073.07l4.442-.455a.807.807 0 0 0 .628-.42.686.686 0 0 1 .1.345v-.717a.809.809 0 0 1-.095.38.763.763 0 0 0-.642-.38zm-12.066.38a.806.806 0 0 0 .627.42l4.437.455a.082.082 0 0 0 .078-.07.8.8 0 0 0-.724-.8l-3.711-.377a.661.661 0 0 0-.068 0 .759.759 0 0 0-.638.38.793.793 0 0 1-.1-.38v.727a.7.7 0 0 1 .095-.345zm12.064-2.8h-.066l-3.713.381a.8.8 0 0 0-.724.8.081.081 0 0 0 .073.07l4.442-.454a.807.807 0 0 0 .628-.42.688.688 0 0 1 .1.346v-.717a.8.8 0 0 1-.095.38.766.766 0 0 0-.644-.38zm-12.064.38a.8.8 0 0 0 .627.42l4.437.454a.082.082 0 0 0 .078-.07.8.8 0 0 0-.724-.8l-3.711-.374h-.066a.761.761 0 0 0-.64.379.793.793 0 0 1-.1-.38v.728a.7.7 0 0 1 .095-.346zm12.066-2.8a.663.663 0 0 0-.068 0L9.993 5.3a.8.8 0 0 0-.724.8.081.081 0 0 0 .073.07l4.442-.455a.806.806 0 0 0 .628-.419.681.681 0 0 1 .1.345v-.723a.809.809 0 0 1-.095.38.763.763 0 0 0-.643-.38zM1.708 5.3a.805.805 0 0 0 .627.419l4.437.455a.082.082 0 0 0 .078-.07.8.8 0 0 0-.724-.8l-3.712-.383a.661.661 0 0 0-.068 0 .759.759 0 0 0-.638.379.793.793 0 0 1-.1-.38v.727a.7.7 0 0 1 .099-.347zm12.066-2.8a.663.663 0 0 0-.068 0l-3.713.381a.8.8 0 0 0-.724.8.081.081 0 0 0 .073.07l4.442-.451a.807.807 0 0 0 .628-.42.686.686 0 0 1 .1.345V2.5a.809.809 0 0 1-.095.38.763.763 0 0 0-.643-.38zm-12.066.38a.806.806 0 0 0 .627.42l4.437.454a.082.082 0 0 0 .078-.07.8.8 0 0 0-.724-.8L2.414 2.5a.663.663 0 0 0-.068 0 .759.759 0 0 0-.638.379.793.793 0 0 1-.1-.38v.727a.7.7 0 0 1 .095-.345z" class="cls-1"/>
        </clipPath>
        <style>
            .cls-1{fill:#fff}
        </style>
    </defs>
    <g id="Group_5602" transform="translate(-1210.884 -1020)">
        <circle id="Ellipse_3052" cx="15" cy="15" r="15" fill="#ccfaeb" transform="translate(1211 1020)"/>
        <g id="verify" transform="translate(1217.884 1025.626)">
            <g id="Group_5610">
                <g filter="url(#Path_7434)" transform="translate(-7 -5.63)">
                    <path id="Path_7434-2" d="M10.507 1.577h-.868a2.173 2.173 0 0 0-4.18 0h-.867A.6.6 0 0 0 4 2.169v1.183a1.387 1.387 0 0 0 1.38 1.38h4.338a1.387 1.387 0 0 0 1.38-1.38V2.169a.6.6 0 0 0-.591-.592z" class="cls-1" transform="translate(6.16 5.63)"/>
                </g>
                <g filter="url(#Path_7435)" transform="translate(-7 -5.63)">
                    <path id="Path_7435-2" d="M11.239 3h-.2v.986a2.168 2.168 0 0 1-2.166 2.169H4.535a2.168 2.168 0 0 1-2.169-2.169V3h-.2A2.168 2.168 0 0 0 0 5.169v9.859A2.168 2.168 0 0 0 2.169 17.2h5.2a6.891 6.891 0 0 1-.655-2.76H2.958a.592.592 0 1 1 0-1.183h3.817a7.218 7.218 0 0 1 .347-1.38H2.958a.592.592 0 1 1 0-1.183H7.69a6.864 6.864 0 0 1 1.1-1.38H2.958a.592.592 0 1 1 0-1.183H10.4a6.8 6.8 0 0 1 3-.781V5.169A2.168 2.168 0 0 0 11.239 3z" class="cls-1" transform="translate(7 4.99)"/>
                </g>
                <g filter="url(#Path_7436)" transform="translate(-7 -5.63)">
                    <path id="Path_7436-2" d="M15.824 10.5a5.324 5.324 0 1 0 5.324 5.324 5.33 5.33 0 0 0-5.324-5.324zm2.565 4.266l-2.76 3.155a.788.788 0 0 1-.567.269h-.026a.788.788 0 0 1-.558-.231L12.9 16.381a.789.789 0 1 1 1.115-1.115l.981.981 2.204-2.52a.789.789 0 1 1 1.187 1.04z" class="cls-1" transform="translate(4.78 3.41)"/>
                </g>
            </g>
        </g>
    </g>
</svg>
