<svg width="44" height="44" viewBox="0 0 44 44" fill="none" xmlns="http://www.w3.org/2000/svg">
<g filter="url(#filter0_d)">
<path d="M29 3H17C11.4772 3 7 7.47715 7 13V25C7 30.5228 11.4772 35 17 35H29C34.5228 35 39 30.5228 39 25V13C39 7.47715 34.5228 3 29 3Z" fill="url(#paint0_linear)"/>
</g>
<path d="M29.375 11C29.375 11 18.5558 11 17.2917 11C16.0275 11 15 12.0275 15 13.2917C15 14.5558 15 24.7083 15 24.7083C15 25.9725 16.0275 27 17.2917 27H29.375C30.6392 27 31.6667 25.9725 31.6667 24.7083V13.2917C31.6667 12.0275 30.6392 11 29.375 11ZM22.2917 17.8333V13.73C24.2917 14.0342 25.8333 15.75 25.8333 17.8333C25.8333 20.1308 23.9642 22 21.6667 22C20.7433 22 19.8975 21.6883 19.2058 21.1775L22.1083 18.275C22.2258 18.1583 22.2917 17.9992 22.2917 17.8333ZM21.0417 13.73V17.575L18.3225 20.2942C17.8117 19.6025 17.5 18.7567 17.5 17.8333C17.5 15.75 19.0417 14.0342 21.0417 13.73ZM28.5417 24.7083H18.125C17.78 24.7083 17.5 24.4283 17.5 24.0833C17.5 23.7383 17.78 23.4583 18.125 23.4583H28.5417C28.8867 23.4583 29.1667 23.7383 29.1667 24.0833C29.1667 24.4283 28.8867 24.7083 28.5417 24.7083ZM28.5417 22H27.2917C26.9467 22 26.6667 21.72 26.6667 21.375C26.6667 21.03 26.9467 20.75 27.2917 20.75H28.5417C28.8867 20.75 29.1667 21.03 29.1667 21.375C29.1667 21.72 28.8867 22 28.5417 22ZM28.5417 19.7083H27.2917C26.9467 19.7083 26.6667 19.4283 26.6667 19.0833C26.6667 18.7383 26.9467 18.4583 27.2917 18.4583H28.5417C28.8867 18.4583 29.1667 18.7383 29.1667 19.0833C29.1667 19.4283 28.8867 19.7083 28.5417 19.7083ZM28.5417 17.2083H27.2917C26.9467 17.2083 26.6667 16.9283 26.6667 16.5833C26.6667 16.2383 26.9467 15.9583 27.2917 15.9583H28.5417C28.8867 15.9583 29.1667 16.2383 29.1667 16.5833C29.1667 16.9283 28.8867 17.2083 28.5417 17.2083ZM28.5417 14.9167H27.2917C26.9467 14.9167 26.6667 14.6367 26.6667 14.2917C26.6667 13.9467 26.9467 13.6667 27.2917 13.6667H28.5417C28.8867 13.6667 29.1667 13.9467 29.1667 14.2917C29.1667 14.6367 28.8867 14.9167 28.5417 14.9167Z" fill="white"/>
<defs>
<filter id="filter0_d" x="0" y="0" width="44" height="44" filterUnits="userSpaceOnUse" color-interpolation-filters="sRGB">
<feFlood flood-opacity="0" result="BackgroundImageFix"/>
<feColorMatrix in="SourceAlpha" type="matrix" values="0 0 0 0 0 0 0 0 0 0 0 0 0 0 0 0 0 0 127 0"/>
<feOffset dx="-1" dy="3"/>
<feGaussianBlur stdDeviation="3"/>
<feColorMatrix type="matrix" values="0 0 0 0 0.196078 0 0 0 0 0.0117647 0 0 0 0 0.564706 0 0 0 0.639 0"/>
<feBlend mode="normal" in2="BackgroundImageFix" result="effect1_dropShadow"/>
<feBlend mode="normal" in="SourceGraphic" in2="effect1_dropShadow" result="shape"/>
</filter>
<linearGradient id="paint0_linear" x1="33.848" y1="31.224" x2="11.384" y2="4.728" gradientUnits="userSpaceOnUse">
<stop stop-color="#7535A7"/>
<stop offset="0.445833" stop-color="#BC66FF"/>
</linearGradient>
</defs>
</svg>
