<svg width="44" height="44" viewBox="0 0 44 44" fill="none" xmlns="http://www.w3.org/2000/svg">
<g filter="url(#filter0_d)">
<path d="M29 3H17C11.4772 3 7 7.47715 7 13V25C7 30.5228 11.4772 35 17 35H29C34.5228 35 39 30.5228 39 25V13C39 7.47715 34.5228 3 29 3Z" fill="url(#paint0_linear)"/>
</g>
<path d="M30.115 12.1778H28.7467V11.2439C28.7467 10.5569 28.1898 10 27.5029 10H27.4531C26.7661 10 26.2092 10.5569 26.2092 11.2439V12.1778H19.7908V11.2439C19.7908 10.5569 19.2339 10 18.5469 10H18.4971C17.8102 10 17.2533 10.5569 17.2533 11.2439V12.1778H15.885C15.198 12.1778 14.6411 12.7347 14.6411 13.4217V26.7561C14.6411 27.4432 15.198 28 15.885 28H30.115C30.802 28 31.3589 27.4432 31.3589 26.7561V13.4217C31.3589 12.7347 30.8019 12.1778 30.115 12.1778ZM29.2692 26.0347H16.7308V15.9343H29.2692V26.0347Z" fill="white"/>
<path d="M18.435 20.5051H20.5993C20.7092 20.5051 20.7983 20.4159 20.7983 20.306V18.1418C20.7983 18.0319 20.7092 17.9427 20.5993 17.9427H18.435C18.3251 17.9427 18.236 18.0319 18.236 18.1418V20.306C18.236 20.4159 18.3251 20.5051 18.435 20.5051Z" fill="white"/>
<path d="M21.9179 20.5051H24.0821C24.192 20.5051 24.2811 20.4159 24.2811 20.306V18.1418C24.2811 18.0319 24.192 17.9427 24.0821 17.9427H21.9179C21.808 17.9427 21.7188 18.0319 21.7188 18.1418V20.306C21.7188 20.4159 21.808 20.5051 21.9179 20.5051Z" fill="white"/>
<path d="M25.4007 20.5051H27.565C27.6749 20.5051 27.764 20.4159 27.764 20.306V18.1418C27.764 18.0319 27.6749 17.9427 27.565 17.9427H25.4007C25.2908 17.9427 25.2017 18.0319 25.2017 18.1418V20.306C25.2017 20.4159 25.2908 20.5051 25.4007 20.5051Z" fill="white"/>
<path d="M18.435 23.9879H20.5993C20.7092 23.9879 20.7983 23.8988 20.7983 23.7889V21.6246C20.7983 21.5147 20.7092 21.4256 20.5993 21.4256H18.435C18.3251 21.4256 18.236 21.5147 18.236 21.6246V23.7889C18.236 23.8988 18.3251 23.9879 18.435 23.9879Z" fill="white"/>
<path d="M21.9179 23.9879H24.0821C24.192 23.9879 24.2811 23.8988 24.2811 23.7889V21.6246C24.2811 21.5147 24.192 21.4256 24.0821 21.4256H21.9179C21.808 21.4256 21.7188 21.5147 21.7188 21.6246V23.7889C21.7188 23.8988 21.808 23.9879 21.9179 23.9879Z" fill="white"/>
<path d="M25.4007 23.9879H27.565C27.6749 23.9879 27.764 23.8988 27.764 23.7889V21.6246C27.764 21.5147 27.6749 21.4256 27.565 21.4256H25.4007C25.2908 21.4256 25.2017 21.5147 25.2017 21.6246V23.7889C25.2017 23.8988 25.2908 23.9879 25.4007 23.9879Z" fill="white"/>
<defs>
<filter id="filter0_d" x="0" y="0" width="44" height="44" filterUnits="userSpaceOnUse" color-interpolation-filters="sRGB">
<feFlood flood-opacity="0" result="BackgroundImageFix"/>
<feColorMatrix in="SourceAlpha" type="matrix" values="0 0 0 0 0 0 0 0 0 0 0 0 0 0 0 0 0 0 127 0"/>
<feOffset dx="-1" dy="3"/>
<feGaussianBlur stdDeviation="3"/>
<feColorMatrix type="matrix" values="0 0 0 0 0.196078 0 0 0 0 0.0117647 0 0 0 0 0.564706 0 0 0 0.639 0"/>
<feBlend mode="normal" in2="BackgroundImageFix" result="effect1_dropShadow"/>
<feBlend mode="normal" in="SourceGraphic" in2="effect1_dropShadow" result="shape"/>
</filter>
<linearGradient id="paint0_linear" x1="33.848" y1="31.224" x2="11.384" y2="4.728" gradientUnits="userSpaceOnUse">
<stop stop-color="#68FF5B"/>
<stop offset="1" stop-color="#66BFFF"/>
</linearGradient>
</defs>
</svg>
