<svg width="44" height="44" viewBox="0 0 44 44" fill="none" xmlns="http://www.w3.org/2000/svg">
<g filter="url(#filter0_d)">
<path d="M29 3H17C11.4772 3 7 7.47715 7 13V25C7 30.5228 11.4772 35 17 35H29C34.5228 35 39 30.5228 39 25V13C39 7.47715 34.5228 3 29 3Z" fill="url(#paint0_linear)"/>
</g>
<path d="M22.3988 27.996C22.1821 27.9667 21.9638 27.9517 21.7452 27.9511C21.1073 27.9167 20.4728 27.8335 19.8469 27.7022C19.3277 27.6671 18.8227 27.513 18.3691 27.2513C17.9154 26.9895 17.5246 26.6267 17.2253 26.1896C17.0784 25.8935 17.0012 25.5661 17 25.2338C16.9988 24.9015 17.0735 24.5735 17.2182 24.2763C17.5159 23.836 17.9073 23.471 18.3628 23.2091C18.8183 22.9473 19.3258 22.7953 19.8469 22.7649C20.4756 22.6358 21.1122 22.5523 21.7523 22.5148C22.924 22.4158 24.1017 22.4158 25.2734 22.5148C25.9086 22.554 26.5404 22.6376 27.1646 22.7649C27.6831 22.8028 28.1871 22.9581 28.6404 23.2196C29.0936 23.4811 29.4849 23.8424 29.7862 24.2775C29.9269 24.5701 30 24.892 30 25.2184C30 25.5447 29.9269 25.8666 29.7862 26.1592C29.4912 26.604 29.0994 26.9722 28.642 27.2347C28.1845 27.4972 27.6739 27.6469 27.1504 27.6718C26.5245 27.8041 25.8901 27.8901 25.2521 27.9292C24.6628 27.9858 24.0709 28.0085 23.4792 27.9972L22.3988 27.996ZM19.2358 15.5889C19.2104 14.4 19.6451 13.2493 20.4446 12.389C21.244 11.5288 22.3429 11.0293 23.5004 11C24.6583 11.0287 25.7579 11.5279 26.5578 12.3882C27.3578 13.2485 27.7928 14.3996 27.7674 15.5889C27.7931 16.7784 27.3582 17.9298 26.5583 18.7904C25.7583 19.651 24.6585 20.1504 23.5004 20.179C22.3427 20.1498 21.2436 19.6501 20.4441 18.7896C19.6447 17.9291 19.2101 16.778 19.2358 15.5889V15.5889Z" fill="white"/>
<defs>
<filter id="filter0_d" x="0" y="0" width="44" height="44" filterUnits="userSpaceOnUse" color-interpolation-filters="sRGB">
<feFlood flood-opacity="0" result="BackgroundImageFix"/>
<feColorMatrix in="SourceAlpha" type="matrix" values="0 0 0 0 0 0 0 0 0 0 0 0 0 0 0 0 0 0 127 0"/>
<feOffset dx="-1" dy="3"/>
<feGaussianBlur stdDeviation="3"/>
<feColorMatrix type="matrix" values="0 0 0 0 0.196078 0 0 0 0 0.0117647 0 0 0 0 0.564706 0 0 0 0.639 0"/>
<feBlend mode="normal" in2="BackgroundImageFix" result="effect1_dropShadow"/>
<feBlend mode="normal" in="SourceGraphic" in2="effect1_dropShadow" result="shape"/>
</filter>
<linearGradient id="paint0_linear" x1="33.848" y1="31.224" x2="11.384" y2="4.728" gradientUnits="userSpaceOnUse">
<stop stop-color="#FF5BBE"/>
<stop offset="1" stop-color="#FFC766"/>
</linearGradient>
</defs>
</svg>
