<svg xmlns="http://www.w3.org/2000/svg" width="30" height="30" viewBox="0 0 30 30">
    <g transform="translate(-290 -1169)">
        <circle cx="15" cy="15" r="15" fill="rgba(0,31,92,0.19)" transform="translate(290 1169)"/>
        <g>
            <path fill="#fff" d="M4.568 14a4.329 4.329 0 0 0-.553-.037 10.868 10.868 0 0 1-1.606-.205 2.948 2.948 0 0 1-2.218-1.246 1.749 1.749 0 0 1-.006-1.576 2.909 2.909 0 0 1 2.224-1.245 11.594 11.594 0 0 1 1.612-.206 18.173 18.173 0 0 1 2.979 0 11.884 11.884 0 0 1 1.6.206 2.982 2.982 0 0 1 2.218 1.246 1.751 1.751 0 0 1 0 1.55 2.859 2.859 0 0 1-2.23 1.246 11.317 11.317 0 0 1-1.606.212 13.446 13.446 0 0 1-1.5.056zM1.892 3.78A3.7 3.7 0 0 1 5.5 0a3.7 3.7 0 0 1 3.61 3.78A3.7 3.7 0 0 1 5.5 7.561 3.7 3.7 0 0 1 1.892 3.78z" transform="translate(299.5 1177)"/>
        </g>
    </g>
</svg>
