<svg xmlns="http://www.w3.org/2000/svg" width="52" height="29" viewBox="0 0 52 29">
    <defs>
        <filter id="trnmk3lx1a" width="52" height="29" x="0" y="0" filterUnits="userSpaceOnUse">
            <feOffset dy="1"/>
            <feGaussianBlur result="blur" stdDeviation="1"/>
            <feFlood flood-color="#5ebf9b"/>
            <feComposite in2="blur" operator="in"/>
            <feComposite in="SourceGraphic"/>
        </filter>
    </defs>
    <g>
        <g filter="url(#trnmk3lx1a)" transform="translate(-767 -684) translate(767 684)">
            <rect width="46" height="23" fill="#fff" rx="7" transform="translate(3 2)"/>
        </g>
        <text fill="#5ebf9b" font-family="SofiaPro-Black, Sofia Pro" font-size="10px" font-weight="800" letter-spacing="0.03em" transform="translate(-767 -684) translate(790 701)">
            <tspan x="0" y="0">XLS</tspan>
        </text>
        <g fill="#5ebf9b" stroke-miterlimit="10">
            <path d="M6 12.422c-.048 0-.097-.004-.144-.011-.291-.034-.564-.17-.768-.383L1.59 8.381c-.35-.365-.343-.953.015-1.31.173-.172.4-.266.641-.266.25 0 .482.1.656.281l2.186 2.28.03-5.506c0-.51.411-.927.916-.927.504 0 .915.416.915.928L6.918 9.35l2.178-2.287c.174-.183.407-.283.658-.283.24 0 .466.093.638.263.36.356.369.944.02 1.31l-3.499 3.673-.023.024c-.204.203-.46.328-.742.361-.049.008-.099.012-.148.012z" transform="translate(-767 -684) translate(775 690)"/>
            <path d="M6 12.222c.04 0 .08-.003.12-.01.228-.026.451-.127.629-.304l.02-.02 3.498-3.673c.275-.29.268-.75-.015-1.03-.14-.138-.319-.206-.498-.206-.187 0-.373.074-.513.22L6.715 9.852l.034-5.99c0-.402-.32-.728-.715-.728-.395 0-.715.326-.715.728l-.034 6-2.527-2.637c-.14-.146-.326-.219-.512-.219-.18 0-.36.07-.5.208-.282.28-.287.742-.011 1.03l3.497 3.647c.181.189.413.296.651.323.038.006.077.01.117.01m0 .4c-.057 0-.115-.005-.17-.014-.337-.04-.65-.196-.887-.442L1.446 8.52c-.425-.444-.417-1.157.018-1.59.21-.21.488-.325.782-.325.304 0 .589.122.8.343L4.89 8.87l.029-5.012c0-.62.5-1.126 1.115-1.126.614 0 1.115.506 1.115 1.128L7.12 8.846l1.83-1.922c.212-.223.497-.345.803-.345.293 0 .57.114.779.321.437.432.447 1.146.023 1.59l-3.498 3.673-.026.027c-.236.235-.531.379-.857.418-.057.01-.116.014-.175.014z" transform="translate(-767 -684) translate(775 690)"/>
        </g>
    </g>
</svg>
