<svg xmlns="http://www.w3.org/2000/svg" width="21" height="20.125" viewBox="0 0 21 20.125">
    <path fill="#ffd215" d="M10.5 20.125A2.628 2.628 0 0 1 7.875 17.5v-1.476a6.118 6.118 0 0 1-3.493-5.753 6.2 6.2 0 0 1 6.012-5.9h.1a6.133 6.133 0 0 1 6.131 6.129 6.071 6.071 0 0 1-.976 3.306 6.168 6.168 0 0 1-2.524 2.217V17.5a2.628 2.628 0 0 1-2.625 2.625zm9.625-8.75A.875.875 0 1 1 21 10.5a.876.876 0 0 1-.875.875zm-19.25 0a.875.875 0 1 1 .875-.875.876.876 0 0 1-.875.875zm16.43-6.8a.875.875 0 1 1 .875-.876.876.876 0 0 1-.875.871zm-13.611 0a.875.875 0 1 1 .876-.876.876.876 0 0 1-.875.871zM10.5 1.75a.875.875 0 1 1 .875-.875.876.876 0 0 1-.875.875z"/>
</svg>
